<?xml version="1.0" encoding="UTF-8"?>
<svg version="1.1" xmlns="http://www.w3.org/2000/svg" width="1024" height="1024">
<path d="M0 0 C-1.36591169 3.54243452 -2.90931484 6.92627929 -4.625 10.3125 C-5.07101562 11.19550781 -5.51703125 12.07851562 -5.9765625 12.98828125 C-6.31429688 13.65214844 -6.65203125 14.31601563 -7 15 C-6.06027344 14.83628906 -5.12054687 14.67257813 -4.15234375 14.50390625 C0.7063754 13.80980351 5.53934211 13.89165691 10.4375 13.9375 C11.35982422 13.94201172 12.28214844 13.94652344 13.23242188 13.95117188 C15.48835048 13.96286062 17.74413967 13.97924545 20 14 C19.34 14.33 18.68 14.66 18 15 C18.33 15.99 18.66 16.98 19 18 C18.34 18 17.68 18 17 18 C16.67 19.65 16.34 21.3 16 23 C16.59167969 22.9278125 17.18335938 22.855625 17.79296875 22.78125 C21.88261722 22.30089977 25.8738531 21.86689849 30 22 C30 22.66 30 23.32 30 24 C31.98 23.505 31.98 23.505 34 23 C33.71125 23.845625 33.4225 24.69125 33.125 25.5625 C31.99227296 29.02361041 30.98175684 32.49372557 30 36 C34.43122419 39.62707008 39.05480689 42.91680396 43.74023438 46.20117188 C47.65367041 48.96837746 51.43864384 51.78662368 55 55 C55 55.66 55 56.32 55 57 C55.81791016 57.31130859 55.81791016 57.31130859 56.65234375 57.62890625 C59.89783855 59.52436161 62.13823762 62.12073051 64.5625 64.9375 C65.09133789 65.54287598 65.62017578 66.14825195 66.16503906 66.77197266 C69.74871151 71.04563576 72.4070329 75.42031125 74.95410156 80.37084961 C80.32433825 90.74811368 84.96587745 94.66935758 95.63525391 98.95361328 C100.29975245 101.0176274 104.62881253 103.69662395 109 106.3125 C109.93948486 106.87227539 110.87896973 107.43205078 111.84692383 108.00878906 C133.20727788 120.86175608 153.65070093 136.13609597 171.05078125 154.05078125 C172.83862361 155.83862361 174.67458688 157.4565307 176.625 159.0625 C179.8027898 161.72280568 182.45352369 164.66470567 185.1328125 167.8203125 C187.1198986 170.13996532 189.18047293 172.37871617 191.25 174.625 C206.33911455 191.42183528 219.07431574 210.27100553 230 230 C230.46760742 230.83950195 230.93521484 231.67900391 231.41699219 232.54394531 C274.30447648 310.20506552 283.62439548 401.60453388 261 487 C260.74379883 487.98145996 260.48759766 488.96291992 260.22363281 489.97412109 C246.52319548 541.79340383 220.03980067 587.67699028 184.84765625 627.72265625 C183.14980378 629.65664491 181.52854553 631.59800747 179.93359375 633.62109375 C158.68107061 659.76813737 127.45961737 682.53201472 98.09765625 698.625 C97.40542969 699.07875 96.71320312 699.5325 96 700 C96 700.66 96 701.32 96 702 C95.34386719 702.07476563 94.68773437 702.14953125 94.01171875 702.2265625 C89.8818303 703.28715642 86.52110417 705.30840906 82.8125 707.375 C47.80115721 726.25157677 9.33796681 737.04961032 -30 742 C-30.67199432 742.08720306 -31.34398865 742.17440613 -32.03634644 742.26425171 C-45.30970259 743.95519736 -58.44098104 744.35841523 -71.8125 744.3125 C-72.8348172 744.31167419 -73.8571344 744.31084839 -74.91043091 744.30999756 C-92.13244543 744.27812203 -108.92346505 743.26682184 -126 741 C-127.75494072 740.7829811 -129.51013009 740.56795819 -131.265625 740.35546875 C-133.93399947 740.03095572 -136.59744673 739.69017929 -139.26171875 739.33203125 C-142.03664131 738.93981317 -142.03664131 738.93981317 -145 739 C-145 738.67 -145 738.34 -145 738 C-148.55860938 737.129043 -152.12234592 736.28123075 -155.6875 735.4375 C-157.19860352 735.0672168 -157.19860352 735.0672168 -158.74023438 734.68945312 C-159.71669922 734.46064453 -160.69316406 734.23183594 -161.69921875 733.99609375 C-162.59471436 733.78138428 -163.49020996 733.5666748 -164.4128418 733.34545898 C-167.22087629 732.97050675 -169.25383839 733.3998948 -172 734 C-174.75 733.1875 -174.75 733.1875 -177 732 C-177.33 731.34 -177.66 730.68 -178 730 C-180.47135173 728.91848286 -180.47135173 728.91848286 -183.51953125 727.93359375 C-184.67751221 727.53503174 -185.83549316 727.13646973 -187.02856445 726.72583008 C-188.27726318 726.30068115 -189.52596191 725.87553223 -190.8125 725.4375 C-202.09276514 721.52551302 -213.02596765 717.14869332 -223.81738281 712.02734375 C-225.94848202 711.02424918 -228.09152026 710.05406662 -230.2421875 709.09375 C-236.25822235 706.39194232 -241.98570654 703.61014027 -247.3828125 699.78125 C-250.30289067 697.79385351 -253.30238039 695.98287642 -256.33007812 694.1652832 C-266.16493702 688.26090489 -275.92526659 682.14286403 -284.69921875 674.71484375 C-286.9226393 672.70119927 -286.9226393 672.70119927 -290 673 C-290.25007812 672.40316406 -290.50015625 671.80632813 -290.7578125 671.19140625 C-292.18189925 668.67910227 -293.53609855 667.6124276 -295.875 665.9375 C-300.37945116 662.56460179 -304.51042664 658.872002 -308.62646484 655.04638672 C-311.37299144 652.49397948 -314.14372926 649.99122086 -317 647.5625 C-325.29340528 640.33809914 -332.84809703 632.49625276 -339.67578125 623.87890625 C-341.32565775 621.83527771 -342.98640532 619.86100518 -344.73046875 617.90234375 C-351.60228914 610.16033801 -357.64244892 602.0585631 -363.45581055 593.48852539 C-364.01953369 592.6608667 -364.58325684 591.83320801 -365.1640625 590.98046875 C-365.66373535 590.23692139 -366.1634082 589.49337402 -366.67822266 588.72729492 C-367.90225062 586.86615037 -367.90225062 586.86615037 -370 586 C-370.67568057 584.4205152 -371.34548752 582.83835051 -371.99169922 581.24658203 C-374.62125273 575.3877076 -378.12701078 569.90842406 -381.34960938 564.36132812 C-381.91615234 563.37455078 -382.48269531 562.38777344 -383.06640625 561.37109375 C-383.58146729 560.48349365 -384.09652832 559.59589355 -384.62719727 558.68139648 C-386 556 -386 556 -386.99584961 552.72680664 C-387.32721924 551.82696045 -387.65858887 550.92711426 -388 550 C-388.99 549.67 -389.98 549.34 -391 549 C-392 548 -392 548 -393 545 C-393 543.68 -393 542.36 -393 541 C-393.96067584 538.61729032 -394.97138253 536.32123993 -396.0625 534 C-402.22424133 520.39564398 -406.73176976 506.16839258 -411.13500977 491.91479492 C-412.35065936 487.87384005 -412.35065936 487.87384005 -414 484 C-414.13415472 481.3276379 -414.04318541 478.67749512 -414 476 C-414.99 476 -415.98 476 -417 476 C-416.81590576 475.45843262 -416.63181152 474.91686523 -416.44213867 474.35888672 C-415.8863339 471.3935716 -416.3354551 469.21580098 -416.92578125 466.2578125 C-417.25545898 464.53111328 -417.25545898 464.53111328 -417.59179688 462.76953125 C-418.05844382 460.4097394 -418.52706584 458.0503369 -418.99804688 455.69140625 C-422.64892483 436.52166665 -423.38181716 417.28549386 -423.3125 397.8125 C-423.31067719 396.74183289 -423.30885437 395.67116577 -423.30697632 394.5680542 C-423.26015476 378.18843798 -422.67873939 362.19003954 -420 346 C-419.82839355 344.91283691 -419.65678711 343.82567383 -419.47998047 342.70556641 C-409.04025721 277.6508834 -380.50872293 216.19342517 -335.5703125 167.7890625 C-333.41922571 165.4549045 -331.32074342 163.09253383 -329.25 160.6875 C-324.34742897 155.05129007 -319.06029892 149.92270404 -313.39453125 145.05859375 C-311.58646382 143.50418668 -309.79498692 141.93045245 -308.01171875 140.34765625 C-298.80343679 132.22766289 -289.0645849 125.02022383 -279 118 C-277.96230469 117.27039063 -276.92460937 116.54078125 -275.85546875 115.7890625 C-269.01273835 111.09963887 -261.87865739 106.95353323 -254.67211914 102.85498047 C-251.26087602 100.91227521 -247.90320021 98.97769732 -244.6796875 96.734375 C-242.26708288 95.17286414 -240.76868074 94.48756642 -238 94 C-233.5989167 92.80217939 -230.79615317 91.23123915 -228.27734375 87.3359375 C-227.1345511 85.1151915 -226.01210993 82.8838976 -224.90625 80.64453125 C-219.71117933 70.33486911 -211.91818371 61.29309772 -204 53 C-203.46375 52.40058594 -202.9275 51.80117187 -202.375 51.18359375 C-192.60219182 40.65339293 -179.86708306 33.94856713 -167 28 C-165.89398438 27.48179687 -164.78796875 26.96359375 -163.6484375 26.4296875 C-157.54339254 23.61073534 -152.02022944 21.76686695 -145.40234375 20.6015625 C-142.97541919 20.17246218 -140.55117743 19.72807165 -138.12890625 19.2734375 C-129.76910961 17.71968953 -121.4383269 16.49695576 -112.97631836 15.64648438 C-110.14692659 15.36094058 -107.36267097 15.07728154 -104.57910156 14.48413086 C-101.9668084 13.99376951 -99.56177062 13.85842162 -96.90625 13.82421875 C-66.09958483 13.18399743 -34.35385213 10.81266273 -4.9921875 0.953125 C-2 0 -2 0 0 0 Z M-130 363 C-131.02524328 366.2499712 -131.02524328 366.2499712 -131 370 C-124.48060026 377.7870608 -112.87097981 379.6216443 -103.25 380.75 C-102.24501465 380.87213867 -101.2400293 380.99427734 -100.20458984 381.12011719 C-83.42138358 382.93273393 -65.74686021 383.10129848 -49 381 C-49 380.01 -49 379.02 -49 378 C-48.505 378.99 -48.505 378.99 -48 380 C-37.92942831 379.44477837 -28.25196221 378.60571646 -21 371 C-18.68883234 367.23434682 -18.68883234 367.23434682 -18 363 C-19.10996338 363.06058594 -20.21992676 363.12117188 -21.36352539 363.18359375 C-54.3226579 364.96128758 -86.81803641 365.67772584 -119.75976562 363.18359375 C-123.17983588 362.98981038 -126.57518335 362.96967272 -130 363 Z M-132 364 C-131 367 -131 367 -131 367 Z M-186 608 C-187.05585725 613.15969255 -187.12582884 618.08499235 -187.08520508 623.32250977 C-187.08202271 624.24194366 -187.07884033 625.16137756 -187.07556152 626.1086731 C-187.06301413 629.13631866 -187.04213335 632.1638199 -187.01953125 635.19140625 C-187.01257421 636.22775648 -187.00561718 637.26410671 -186.99844933 638.3318615 C-186.96112359 643.81009118 -186.91714117 649.28822226 -186.86791992 654.76635742 C-186.81844776 660.42450645 -186.79234479 666.08251396 -186.77148914 671.74083042 C-186.75113418 676.09468651 -186.71326569 680.44826465 -186.6706295 684.80195427 C-186.65328571 686.88830081 -186.64259368 688.97471366 -186.63868141 691.06112862 C-186.63160821 693.97688919 -186.5997139 696.89138506 -186.56176758 699.80688477 C-186.5652269 700.66780228 -186.56868622 701.52871979 -186.57225037 702.41572571 C-186.49407765 706.47527336 -186.30220911 708.5197743 -184.08988953 712.03526306 C-182.20146771 714.09593273 -182.20146771 714.09593273 -180 714.62890625 C-176.33495696 714.50721537 -174.55352925 714.42579173 -171.5625 712.125 C-168.47022569 707.91950694 -168.86564681 704.19434785 -168.88647461 699.14404297 C-168.88632858 698.22691528 -168.88618256 697.3097876 -168.8860321 696.36486816 C-168.88673052 693.32395081 -168.8945196 690.2830942 -168.90234375 687.2421875 C-168.90420818 685.13754307 -168.90563197 683.0328982 -168.90663147 680.92825317 C-168.91045465 675.38143725 -168.92028326 669.8346474 -168.93133545 664.2878418 C-168.94155384 658.6307002 -168.94613001 652.97355441 -168.95117188 647.31640625 C-168.96190569 636.21092603 -168.97897974 625.10546518 -169 614 C-170.40304166 613.35521077 -171.80846814 612.71560965 -173.21484375 612.078125 C-174.38841431 611.54300293 -174.38841431 611.54300293 -175.58569336 610.99707031 C-178.9993325 609.58729154 -182.39538619 608.7864612 -186 608 Z M25.375 610.4375 C24.20710938 610.88996094 23.03921875 611.34242188 21.8359375 611.80859375 C19.14520947 612.72877774 19.14520947 612.72877774 18 614 C17.89426073 616.59030432 17.85321927 619.15408206 17.85473633 621.74511719 C17.85137772 622.55653168 17.8480191 623.36794617 17.84455872 624.20394897 C17.83501635 626.90160633 17.8331037 629.59920179 17.83203125 632.296875 C17.82882001 634.16676866 17.82545604 636.03666206 17.82194519 637.90655518 C17.81594504 641.83419375 17.8141061 645.76181029 17.81469727 649.68945312 C17.81479872 654.72117223 17.80116739 659.7527497 17.78392506 664.78443527 C17.77280042 668.65005134 17.77077823 672.51563329 17.77130699 676.38126373 C17.77012677 678.23599992 17.76570265 680.09073699 17.75797462 681.94545746 C17.7481692 684.54284015 17.7510554 687.13991699 17.75708008 689.73730469 C17.75146057 690.5032193 17.74584106 691.26913391 17.74005127 692.05825806 C17.7693088 697.02613805 18.46354178 700.65487957 21.1875 704.8125 C24.1312608 706.74117087 26.58280159 706.3597051 30 706 C33.1850357 704.23984869 33.83296972 703.50109084 35 700 C35.09164656 697.06327492 35.12595398 694.15070555 35.11352539 691.21411133 C35.11367142 690.31634476 35.11381744 689.41857819 35.1139679 688.49360657 C35.11327064 685.52305697 35.10548697 682.55256991 35.09765625 679.58203125 C35.09579141 677.52365656 35.09436782 675.46528142 35.09336853 673.40690613 C35.08954859 667.98669206 35.07972273 662.56650476 35.06866455 657.14630127 C35.05843921 651.61641807 35.0538685 646.08653055 35.04882812 640.55664062 C35.03810003 629.70441532 35.02102984 618.85220989 35 608 C31.30850907 608 28.80924855 609.09349807 25.375 610.4375 Z " fill="#813989" transform="translate(578,122)"/>
<path d="M0 0 C9.9608117 0.63223514 19.90443296 0.64577277 29.88183594 0.63330078 C31.82505302 0.63397719 33.76827002 0.63495 35.71148682 0.63619995 C39.75883805 0.63766249 43.80616701 0.6355703 47.85351562 0.63085938 C52.977322 0.62517843 58.10107578 0.62844007 63.22488022 0.63443184 C67.23179502 0.63809 71.23869789 0.63687483 75.2456131 0.63430405 C77.13177751 0.63364841 79.0179431 0.634414 80.90410614 0.6367836 C93.31130093 0.64895194 105.65445682 0.27828512 118.04349518 -0.38711929 C135.60047134 -1.27240482 150.79369433 0.71826148 164.25927734 12.80126953 C166.48818487 14.86443285 168.67213475 16.96942248 170.83886719 19.09765625 C172.04952158 20.2823327 173.28351628 21.44308675 174.52246094 22.59814453 C188.67212664 36.03462144 196.20031416 51.27812205 200.89746094 69.93798828 C201.2871292 71.44840247 201.677106 72.95873709 202.06738281 74.46899414 C206.29800761 91.00492015 210.50162251 107.89684648 210.33496094 125.06298828 C210.3259375 126.28115234 210.31691406 127.49931641 210.30761719 128.75439453 C210.29601562 129.66060547 210.28441406 130.56681641 210.27246094 131.50048828 C210.93246094 131.50048828 211.59246094 131.50048828 212.27246094 131.50048828 C212.49933594 130.92298828 212.72621094 130.34548828 212.95996094 129.75048828 C215.18294962 125.93965054 218.13035086 123.88119164 222.27246094 122.50048828 C227.43060656 122.00653713 231.84708797 121.82814254 236.58496094 124.06298828 C237.47183594 124.86736328 238.35871094 125.67173828 239.27246094 126.50048828 C239.77261719 126.95166016 240.27277344 127.40283203 240.78808594 127.86767578 C249.51458176 136.72639124 251.42394514 149.48135533 251.44042969 161.37939453 C251.44375809 162.22791489 251.44708649 163.07643524 251.45051575 163.95066833 C251.45556289 165.74339255 251.45792476 167.53612611 251.45776367 169.32885742 C251.45993452 172.03011202 251.4780705 174.73094726 251.49707031 177.43212891 C251.54908626 193.17752879 251.53751868 208.60813957 240.19042969 220.77783203 C232.33693273 227.83158388 222.39419842 228.87383106 212.27246094 228.50048828 C212.33820313 230.17111328 212.33820313 230.17111328 212.40527344 231.87548828 C212.398595 236.94219435 211.35821507 241.59998921 210.14746094 246.50048828 C209.92227783 247.42112061 209.69709473 248.34175293 209.46508789 249.2902832 C200.48394296 284.79921172 178.55744897 318.37963895 149.27246094 340.50048828 C148.61652954 340.80824692 147.96059814 341.11600555 147.28479004 341.43309021 C144.65071274 342.87015278 143.10300141 344.10122483 141.27246094 346.50048828 C140.10778224 352.00487928 140.32266701 357.43402115 140.44824219 363.03564453 C140.45342762 364.67743657 140.45434807 366.31924707 140.45121765 367.96104431 C140.45110514 372.28201614 140.49427581 376.60131365 140.55102539 380.921875 C140.63953399 387.8102637 140.68489528 394.69812722 140.68752098 401.58706474 C140.69797422 403.97444335 140.74063906 406.35966864 140.78620911 408.74659729 C140.95117886 425.69014872 134.64325615 437.7749871 123.14746094 450.12548828 C114.20650828 458.71310432 102.79468088 465.10017029 91.27246094 469.50048828 C90.64436523 469.7431543 90.01626953 469.98582031 89.36914062 470.23583984 C78.40865502 474.27615484 67.53060333 474.97672754 55.95996094 475.00048828 C54.95030777 475.00722565 54.95030777 475.00722565 53.92025757 475.01409912 C29.11190896 475.08139497 5.3872775 466.69279104 -12.72753906 449.50048828 C-22.72190709 439.14240117 -28.91735456 427.54802492 -28.84106445 413.0480957 C-28.84121048 412.31584778 -28.84135651 411.58359985 -28.84150696 410.8291626 C-28.84081319 408.42139673 -28.83304598 406.0137093 -28.82519531 403.60595703 C-28.82332923 401.93158511 -28.82190622 400.25721263 -28.82090759 398.58283997 C-28.81709742 394.18521608 -28.80727996 389.78762544 -28.79620361 385.39001465 C-28.78595722 380.89884898 -28.78140306 376.40767791 -28.77636719 371.91650391 C-28.76565632 363.11115014 -28.74859795 354.30582335 -28.72753906 345.50048828 C-29.33098145 345.20948242 -29.93442383 344.91847656 -30.55615234 344.61865234 C-61.0632179 328.90891991 -84.57002772 290.12615252 -94.72753906 258.50048828 C-95.77097106 254.89496584 -96.70901924 251.27085736 -97.60253906 247.62548828 C-97.8180542 246.75770752 -98.03356934 245.88992676 -98.25561523 244.99584961 C-99.55506929 239.37098529 -99.92574066 234.2716525 -99.72753906 228.50048828 C-100.38238281 228.54689453 -101.03722656 228.59330078 -101.71191406 228.64111328 C-111.53936649 229.02976959 -120.04808338 227.14583826 -127.72753906 220.75048828 C-138.23683029 210.43089545 -139.35454383 195.55308365 -139.72753906 181.50048828 C-139.76041016 180.27434814 -139.76041016 180.27434814 -139.79394531 179.0234375 C-140.21856978 160.03210816 -140.6249239 141.13553199 -126.94628906 126.49658203 C-122.29987495 122.31644539 -118.53325231 122.07035592 -112.42285156 122.17626953 C-107.22275433 122.80178847 -104.2376643 125.93934378 -100.72753906 129.50048828 C-100.57720215 128.45932861 -100.42686523 127.41816895 -100.27197266 126.34545898 C-94.62183567 87.53727946 -94.62183567 87.53727946 -88.72753906 70.50048828 C-88.44765137 69.66517578 -88.16776367 68.82986328 -87.87939453 67.96923828 C-79.11322998 41.96931306 -60.36641859 17.10679639 -35.71972656 3.88720703 C-24.06997603 -1.62700822 -12.62071945 -0.87794519 0 0 Z M1.27246094 255.50048828 C0.24721766 258.75045949 0.24721766 258.75045949 0.27246094 262.50048828 C6.79186068 270.28754908 18.40148113 272.12213258 28.02246094 273.25048828 C29.02744629 273.37262695 30.03243164 273.49476563 31.06787109 273.62060547 C47.85107736 275.43322221 65.52560073 275.60178676 82.27246094 273.50048828 C82.27246094 272.51048828 82.27246094 271.52048828 82.27246094 270.50048828 C82.76746094 271.49048828 82.76746094 271.49048828 83.27246094 272.50048828 C93.34303263 271.94526665 103.02049873 271.10620474 110.27246094 263.50048828 C112.5836286 259.7348351 112.5836286 259.7348351 113.27246094 255.50048828 C112.16249756 255.56107422 111.05253418 255.62166016 109.90893555 255.68408203 C76.94980304 257.46177586 44.45442452 258.17821412 11.51269531 255.68408203 C8.09262506 255.49029867 4.69727759 255.470161 1.27246094 255.50048828 Z M-0.72753906 256.50048828 C0.27246094 259.50048828 0.27246094 259.50048828 0.27246094 259.50048828 Z " fill="#F9C594" transform="translate(446.7275390625,229.49951171875)"/>
<path d="M0 0 C0.33 0 0.66 0 1 0 C1.00586624 0.90487152 1.01173248 1.80974304 1.01777649 2.74203491 C1.07587767 11.30388649 1.1480533 19.86548203 1.23571491 28.42708397 C1.28028615 32.82783523 1.31957079 37.22849674 1.34643555 41.62939453 C1.37260156 45.88303762 1.41309605 50.13633283 1.46318626 54.38975906 C1.47976563 56.00586213 1.49133516 57.62202524 1.49761391 59.23820114 C1.5713186 76.47898914 5.35906054 89.85294488 17.5390625 102.66015625 C39.31817637 123.36759944 67.15737623 127.94128724 96.0660553 127.28753662 C104.89194801 126.99164675 112.81458027 125.23308865 121 122 C121.73734375 121.71060547 122.4746875 121.42121094 123.234375 121.12304688 C133.20195053 117.0758675 141.8038942 112.0145731 150 105 C150.73605469 104.37609375 151.47210937 103.7521875 152.23046875 103.109375 C160.9681323 95.06464028 168.23734746 83.61998633 169.3000946 71.60813904 C169.44181091 67.55816538 169.49433598 63.51679893 169.51171875 59.46484375 C169.52859247 57.97553554 169.54674628 56.48624134 169.56611633 54.9969635 C169.61333072 51.1058083 169.64332367 47.21470991 169.66955566 43.32336426 C169.69950659 39.34111313 169.74598642 35.35905725 169.79101562 31.37695312 C169.87672308 23.58473292 169.94421172 15.792498 170 8 C171.88535779 7.97689443 173.77079934 7.96057387 175.65625 7.94702148 C177.23116211 7.93227028 177.23116211 7.93227028 178.83789062 7.91722107 C183.69966005 8.04449436 188.27372534 8.97360745 193 10.0625 C193.98403809 10.28437988 194.96807617 10.50625977 195.98193359 10.73486328 C220.89565791 16.58632879 248.18236458 27.29016937 262.31738281 50.01123047 C268.81615049 61.07953792 270.55487597 71.25840364 270 84 C270.804375 84.226875 271.60875 84.45375 272.4375 84.6875 C276.92894304 86.34224217 280.8776139 88.58618809 285 91 C285.836521 91.48839355 286.67304199 91.97678711 287.53491211 92.47998047 C298.0719219 98.71660146 307.81053355 105.55995421 316.78125 113.93359375 C318.76305793 115.77932684 320.79603216 117.51610674 322.875 119.25 C332.48540907 127.65668106 340.69000875 137.57107915 348 148 C348.70769531 148.99644531 349.41539062 149.99289062 350.14453125 151.01953125 C350.79808594 151.98246094 351.45164062 152.94539062 352.125 153.9375 C352.99511719 155.21947266 352.99511719 155.21947266 353.8828125 156.52734375 C355.28658126 159.63428649 355.18757264 160.82164169 354 164 C352.14453125 166.6484375 352.14453125 166.6484375 349.8125 169.375 C348.99910156 170.3340625 348.18570313 171.293125 347.34765625 172.28125 C346.57292969 173.1784375 345.79820312 174.075625 345 175 C344.42121094 175.6909375 343.84242188 176.381875 343.24609375 177.09375 C320.60711197 204.04773353 289.86717991 227.76054435 259.09765625 244.625 C258.40542969 245.07875 257.71320313 245.5325 257 246 C257 246.66 257 247.32 257 248 C256.01580078 248.11214844 256.01580078 248.11214844 255.01171875 248.2265625 C250.8818303 249.28715642 247.52110417 251.30840906 243.8125 253.375 C208.80115721 272.25157677 170.33796681 283.04961032 131 288 C130.32800568 288.08720306 129.65601135 288.17440613 128.96365356 288.26425171 C115.69029741 289.95519736 102.55901896 290.35841523 89.1875 290.3125 C88.1651828 290.31167419 87.1428656 290.31084839 86.08956909 290.30999756 C68.86755457 290.27812203 52.07653495 289.26682184 35 287 C33.24505928 286.7829811 31.48986991 286.56795819 29.734375 286.35546875 C27.06600053 286.03095572 24.40255327 285.69017929 21.73828125 285.33203125 C18.96335869 284.93981317 18.96335869 284.93981317 16 285 C16 284.67 16 284.34 16 284 C12.44139062 283.129043 8.87765408 282.28123075 5.3125 281.4375 C4.30509766 281.19064453 3.29769531 280.94378906 2.25976562 280.68945312 C1.28330078 280.46064453 0.30683594 280.23183594 -0.69921875 279.99609375 C-2.04246216 279.67402954 -2.04246216 279.67402954 -3.4128418 279.34545898 C-6.22087629 278.97050675 -8.25383839 279.3998948 -11 280 C-13.75 279.1875 -13.75 279.1875 -16 278 C-16.33 277.34 -16.66 276.68 -17 276 C-19.47135173 274.91848286 -19.47135173 274.91848286 -22.51953125 273.93359375 C-23.67751221 273.53503174 -24.83549316 273.13646973 -26.02856445 272.72583008 C-27.27726318 272.30068115 -28.52596191 271.87553223 -29.8125 271.4375 C-41.09276514 267.52551302 -52.02596765 263.14869332 -62.81738281 258.02734375 C-64.94848202 257.02424918 -67.09152026 256.05406662 -69.2421875 255.09375 C-75.25822235 252.39194232 -80.98570654 249.61014027 -86.3828125 245.78125 C-89.30289067 243.79385351 -92.30238039 241.98287642 -95.33007812 240.1652832 C-105.16493702 234.26090489 -114.92526659 228.14286403 -123.69921875 220.71484375 C-125.9226393 218.70119927 -125.9226393 218.70119927 -129 219 C-129.25007813 218.40316406 -129.50015625 217.80632812 -129.7578125 217.19140625 C-131.18189925 214.67910227 -132.53609855 213.6124276 -134.875 211.9375 C-139.37945116 208.56460179 -143.51042664 204.872002 -147.62646484 201.04638672 C-150.37299144 198.49397948 -153.14372926 195.99122086 -156 193.5625 C-164.49702959 186.16072162 -172.18743111 178.11984993 -179.16015625 169.27734375 C-180.86986072 167.00671606 -180.86986072 167.00671606 -182.80859375 165.50390625 C-184 164 -184 164 -183.96875 161.7578125 C-182.68019746 158.08959437 -180.68689129 155.05478788 -178.5 151.875 C-177.82723022 150.88367065 -177.82723022 150.88367065 -177.14086914 149.87231445 C-173.08289879 143.97143555 -168.69454701 138.40911523 -164 133 C-163.28199219 132.17113281 -162.56398437 131.34226562 -161.82421875 130.48828125 C-159.5859574 127.95582569 -157.30608494 125.47080529 -155 123 C-154.20335937 122.13761719 -153.40671875 121.27523437 -152.5859375 120.38671875 C-140.74459258 108.02664422 -126.8748734 98.35139453 -112 90 C-110.90816406 89.37867188 -109.81632812 88.75734375 -108.69140625 88.1171875 C-101.32834302 84 -101.32834302 84 -99 84 C-99.01160156 83.38253906 -99.02320313 82.76507812 -99.03515625 82.12890625 C-99.06404082 79.41788314 -99.03450937 76.71090293 -99 74 C-99.01933594 73.30519531 -99.03867187 72.61039063 -99.05859375 71.89453125 C-98.6967395 59.42262135 -89.61508514 47.21472835 -81 39 C-80.30261719 38.30648437 -79.60523438 37.61296875 -78.88671875 36.8984375 C-60.90394194 19.86904374 -31.38312104 9.31994574 -6.8359375 7.8046875 C-5.61777344 7.83949219 -5.61777344 7.83949219 -4.375 7.875 C-3.53710938 7.89304687 -2.69921875 7.91109375 -1.8359375 7.9296875 C-0.92714844 7.96449219 -0.92714844 7.96449219 0 8 C0 5.36 0 2.72 0 0 Z M-25 154 C-26.05585725 159.15969255 -26.12582884 164.08499235 -26.08520508 169.32250977 C-26.08202271 170.24194366 -26.07884033 171.16137756 -26.07556152 172.1086731 C-26.06301413 175.13631866 -26.04213335 178.1638199 -26.01953125 181.19140625 C-26.01257421 182.22775648 -26.00561718 183.26410671 -25.99844933 184.3318615 C-25.96112359 189.81009118 -25.91714117 195.28822226 -25.86791992 200.76635742 C-25.81844776 206.42450645 -25.79234479 212.08251396 -25.77148914 217.74083042 C-25.75113418 222.09468651 -25.71326569 226.44826465 -25.6706295 230.80195427 C-25.65328571 232.88830081 -25.64259368 234.97471366 -25.63868141 237.06112862 C-25.63160821 239.97688919 -25.5997139 242.89138506 -25.56176758 245.80688477 C-25.5652269 246.66780228 -25.56868622 247.52871979 -25.57225037 248.41572571 C-25.49407765 252.47527336 -25.30220911 254.5197743 -23.08988953 258.03526306 C-21.20146771 260.09593273 -21.20146771 260.09593273 -19 260.62890625 C-15.33495696 260.50721537 -13.55352925 260.42579173 -10.5625 258.125 C-7.47022569 253.91950694 -7.86564681 250.19434785 -7.88647461 245.14404297 C-7.88632858 244.22691528 -7.88618256 243.3097876 -7.8860321 242.36486816 C-7.88673052 239.32395081 -7.8945196 236.2830942 -7.90234375 233.2421875 C-7.90420818 231.13754307 -7.90563197 229.0328982 -7.90663147 226.92825317 C-7.91045465 221.38143725 -7.92028326 215.8346474 -7.93133545 210.2878418 C-7.94155384 204.6307002 -7.94613001 198.97355441 -7.95117188 193.31640625 C-7.96190569 182.21092603 -7.97897974 171.10546518 -8 160 C-9.40304166 159.35521077 -10.80846814 158.71560965 -12.21484375 158.078125 C-13.38841431 157.54300293 -13.38841431 157.54300293 -14.58569336 156.99707031 C-17.9993325 155.58729154 -21.39538619 154.7864612 -25 154 Z M186.375 156.4375 C185.20710938 156.88996094 184.03921875 157.34242188 182.8359375 157.80859375 C180.14520947 158.72877774 180.14520947 158.72877774 179 160 C178.89426073 162.59030432 178.85321927 165.15408206 178.85473633 167.74511719 C178.85137772 168.55653168 178.8480191 169.36794617 178.84455872 170.20394897 C178.83501635 172.90160633 178.8331037 175.59920179 178.83203125 178.296875 C178.82882001 180.16676866 178.82545604 182.03666206 178.82194519 183.90655518 C178.81594504 187.83419375 178.8141061 191.76181029 178.81469727 195.68945312 C178.81479872 200.72117223 178.80116739 205.7527497 178.78392506 210.78443527 C178.77280042 214.65005134 178.77077823 218.51563329 178.77130699 222.38126373 C178.77012677 224.23599992 178.76570265 226.09073699 178.75797462 227.94545746 C178.7481692 230.54284015 178.7510554 233.13991699 178.75708008 235.73730469 C178.75146057 236.5032193 178.74584106 237.26913391 178.74005127 238.05825806 C178.7693088 243.02613805 179.46354178 246.65487957 182.1875 250.8125 C185.1312608 252.74117087 187.58280159 252.3597051 191 252 C194.1850357 250.23984869 194.83296972 249.50109084 196 246 C196.09164656 243.06327492 196.12595398 240.15070555 196.11352539 237.21411133 C196.11367142 236.31634476 196.11381744 235.41857819 196.1139679 234.49360657 C196.11327064 231.52305697 196.10548697 228.55256991 196.09765625 225.58203125 C196.09579141 223.52365656 196.09436782 221.46528142 196.09336853 219.40690613 C196.08954859 213.98669206 196.07972273 208.56650476 196.06866455 203.14630127 C196.05843921 197.61641807 196.0538685 192.08653055 196.04882812 186.55664062 C196.03810003 175.70441532 196.02102984 164.85220989 196 154 C192.30850907 154 189.80924855 155.09349807 186.375 156.4375 Z " fill="#2C3A51" transform="translate(417,576)"/>
<path d="M0 0 C32.61077041 15.46441978 63.8110567 36.06459534 89.05078125 62.05078125 C90.83862361 63.83862361 92.67458688 65.4565307 94.625 67.0625 C97.8027898 69.72280568 100.45352369 72.66470567 103.1328125 75.8203125 C105.1198986 78.13996532 107.18047293 80.37871617 109.25 82.625 C124.33911455 99.42183528 137.07431574 118.27100553 148 138 C148.46760742 138.83950195 148.93521484 139.67900391 149.41699219 140.54394531 C192.30447648 218.20506552 201.62439548 309.60453388 179 395 C178.61569824 396.47218994 178.61569824 396.47218994 178.22363281 397.97412109 C165.89109729 444.61957695 143.13141174 486.57299054 113 524 C111.09172101 521.60084539 109.43962936 519.12372013 107.87109375 516.49609375 C102.62251328 507.71341853 97.12384095 500.37913218 90 493 C88.88792572 491.69419332 87.78314033 490.38212591 86.6875 489.0625 C75.50242827 476.28701015 61.85505736 465.99412244 47.375 457.25 C46.45352173 456.68575317 46.45352173 456.68575317 45.51342773 456.11010742 C42.48622918 454.301958 39.55226213 452.7690365 36.23828125 451.5546875 C32.46492846 450.03538374 29.89856484 448.87117683 27 446 C25.44145535 441.40212176 25.47451056 436.55118361 25.29296875 431.7421875 C24.7801142 419.10845338 16.38099627 407.55017914 7.46875 399.06640625 C-14.34732058 380.80580287 -44.77729867 371.12665474 -73 370 C-73.30926675 367.06352782 -73.51666599 364.86255506 -73 362 C-70.90725635 359.77861694 -69.2907023 358.40148773 -66.8125 356.75 C-65.51998505 355.8120308 -64.23100384 354.86917585 -62.9453125 353.921875 C-62.28692383 353.44298828 -61.62853516 352.96410156 -60.95019531 352.47070312 C-51.74459597 345.52847347 -43.96769261 337.14429159 -37 328 C-36.25105469 327.04351563 -35.50210938 326.08703125 -34.73046875 325.1015625 C-16.54257929 301.49138912 -3.98544543 273.85445431 -1 244 C0.46759766 243.85304688 0.46759766 243.85304688 1.96484375 243.703125 C12.85295006 242.4612171 22.43786076 240.56648586 30 232 C36.51052922 222.01040674 37.14093037 210.36669672 37.203125 198.79296875 C37.20882507 197.94632156 37.21452515 197.09967438 37.22039795 196.22737122 C37.22977671 194.44838686 37.23635326 192.6693857 37.24023438 190.89038086 C37.24993822 188.20460001 37.28102906 185.5195864 37.3125 182.83398438 C37.39720079 169.14164246 36.48843271 155.23126488 27.47265625 144.1171875 C22.96224444 139.72351576 18.13085922 138.7154725 12 138 C12.99 137.67 13.98 137.34 15 137 C14.93801917 127.63552094 14.86038868 118.27132628 14.76428509 108.90713501 C14.72009063 104.55611112 14.68073267 100.20517006 14.65356445 95.85400391 C14.46437231 49.54827024 14.46437231 49.54827024 1.13671875 5.6171875 C0 3 0 3 0 0 Z " fill="#813A89" transform="translate(660,214)"/>
<path d="M0 0 C-1.36591169 3.54243452 -2.90931484 6.92627929 -4.625 10.3125 C-5.29402344 11.63701172 -5.29402344 11.63701172 -5.9765625 12.98828125 C-6.48316406 13.98408203 -6.48316406 13.98408203 -7 15 C-5.59041016 14.75443359 -5.59041016 14.75443359 -4.15234375 14.50390625 C0.7063754 13.80980351 5.53934211 13.89165691 10.4375 13.9375 C11.35982422 13.94201172 12.28214844 13.94652344 13.23242188 13.95117188 C15.48835048 13.96286062 17.74413967 13.97924545 20 14 C19.34 14.33 18.68 14.66 18 15 C18.33 15.99 18.66 16.98 19 18 C18.34 18 17.68 18 17 18 C16.67 19.65 16.34 21.3 16 23 C16.59167969 22.9278125 17.18335938 22.855625 17.79296875 22.78125 C21.88261722 22.30089977 25.8738531 21.86689849 30 22 C30 22.66 30 23.32 30 24 C31.98 23.505 31.98 23.505 34 23 C33.71125 23.845625 33.4225 24.69125 33.125 25.5625 C31.99227296 29.02361041 30.98175684 32.49372557 30 36 C34.43122419 39.62707008 39.05480689 42.91680396 43.74023438 46.20117188 C47.65367041 48.96837746 51.43864384 51.78662368 55 55 C55 55.66 55 56.32 55 57 C55.54398438 57.20496094 56.08796875 57.40992188 56.6484375 57.62109375 C74.66332166 68.18463878 86.12496377 97.33488812 91.13427734 116.44735718 C97.19466891 140.93244079 97.40473895 165.37140166 97.20599365 190.4151001 C97.17476075 194.78059416 97.16148917 199.1461441 97.14648438 203.51171875 C97.11474626 212.00796081 97.06385947 220.50393876 97 229 C96.24146729 229.25104492 95.48293457 229.50208984 94.70141602 229.76074219 C93.70811279 230.10266602 92.71480957 230.44458984 91.69140625 230.796875 C90.70599854 231.13041992 89.72059082 231.46396484 88.70532227 231.80761719 C84.86610924 233.49976739 83.38250247 235.6183836 81 239 C80.34 239 79.68 239 79 239 C78.97083496 238.45512939 78.94166992 237.91025879 78.91162109 237.34887695 C77.62458311 215.36235704 73.02061811 194.21761994 67.5 172.9375 C67.24001221 171.91035889 66.98002441 170.88321777 66.7121582 169.82495117 C63.50375034 157.94091515 58.08837387 148.22695667 50 139 C49.26394531 138.154375 48.52789063 137.30875 47.76953125 136.4375 C45.54539228 133.92625186 43.28582516 131.45514554 41 129 C40.34128906 128.28714844 39.68257812 127.57429688 39.00390625 126.83984375 C28.13533482 115.49016855 15.73625185 108.63114844 -0.07421875 107.84765625 C-6.08351625 107.7836519 -12.06232272 108.04173472 -18.06070328 108.36544991 C-29.76064684 108.9876025 -41.42634544 109.14752922 -53.140625 109.1328125 C-55.08770764 109.13348932 -57.0347902 109.13446245 -58.98187256 109.13571167 C-63.02210308 109.13716952 -67.06231119 109.13509573 -71.10253906 109.13037109 C-76.23110857 109.12465954 -81.35962588 109.12797414 -86.48819351 109.13394356 C-90.49493795 109.13758825 -94.50167038 109.13639305 -98.50841522 109.13381577 C-100.39788571 109.13315806 -102.28735735 109.13393344 -104.17682648 109.13629532 C-114.56000735 109.14643882 -124.86984717 108.94566142 -135.23065186 108.23849487 C-151.60141992 107.20268069 -164.83946332 108.67306415 -177.8515625 119.54736328 C-181.79727633 123.03680403 -185.5867135 126.67838417 -189.33886719 130.37402344 C-190.73787894 131.74342647 -192.16652929 133.08245511 -193.6015625 134.4140625 C-203.93443869 144.16274781 -211.26016404 155.62487348 -216 169 C-216.2794043 169.77811035 -216.55880859 170.5562207 -216.84667969 171.35791016 C-224.60190597 193.32541317 -228.3608425 215.91805337 -231 239 C-231.77601563 238.20980469 -232.55203125 237.41960937 -233.3515625 236.60546875 C-237.86118376 232.16901243 -241.95500659 230.66343495 -248 229 C-248.60935952 191.60876252 -248.42469744 154.4448893 -239 118 C-238.77586426 117.12794922 -238.55172852 116.25589844 -238.32080078 115.35742188 C-233.66342455 97.7008057 -227.15679809 81.54720317 -216 67 C-215.35289062 66.13117188 -214.70578125 65.26234375 -214.0390625 64.3671875 C-201.17965461 47.62371356 -185.95018987 36.7608416 -167 28 C-165.89398438 27.48179687 -164.78796875 26.96359375 -163.6484375 26.4296875 C-157.54339254 23.61073534 -152.02022944 21.76686695 -145.40234375 20.6015625 C-142.97541919 20.17246218 -140.55117743 19.72807165 -138.12890625 19.2734375 C-129.76910961 17.71968953 -121.4383269 16.49695576 -112.97631836 15.64648438 C-110.14692659 15.36094058 -107.36267097 15.07728154 -104.57910156 14.48413086 C-101.9668084 13.99376951 -99.56177062 13.85842162 -96.90625 13.82421875 C-66.09958483 13.18399743 -34.35385213 10.81266273 -4.9921875 0.953125 C-2 0 -2 0 0 0 Z " fill="#462B26" transform="translate(578,122)"/>
<path d="M0 0 C0.66 0 1.32 0 2 0 C1.99363525 0.69037354 1.98727051 1.38074707 1.98071289 2.09204102 C1.97197553 5.24993586 2.0167913 8.40494277 2.0625 11.5625 C2.05154297 12.64853516 2.04058594 13.73457031 2.02929688 14.85351562 C2.14386251 20.23810038 2.28155231 24.00385222 6.16015625 27.97265625 C7.41172036 29.01676649 8.69139944 30.02832954 10 31 C10.53214111 31.43610596 11.06428223 31.87221191 11.61254883 32.3215332 C36.96780184 52.67908891 67.31224034 60.63736965 99.50634766 57.77734375 C123.46066137 54.88182339 144.46835624 44.06584073 162.64990234 28.59619141 C166.90339411 25 166.90339411 25 168 25 C168.10196962 32.07995205 168.17170349 39.15971257 168.21972656 46.24023438 C168.23976034 48.64557981 168.26699522 51.05087703 168.30175781 53.45605469 C168.35063808 56.92655378 168.37305205 60.39640526 168.390625 63.8671875 C168.41127014 64.93113739 168.43191528 65.99508728 168.45318604 67.09127808 C168.45740962 81.35475183 161.36960061 91.45852821 151.875 101.625 C142.93404734 110.21261604 131.52221994 116.59968201 120 121 C119.3719043 121.24266602 118.74380859 121.48533203 118.09667969 121.73535156 C107.13619408 125.77566656 96.25814239 126.47623926 84.6875 126.5 C83.67784683 126.50673737 83.67784683 126.50673737 82.64779663 126.51361084 C57.83944803 126.58090668 34.11481656 118.19230276 16 101 C6.08840436 90.72769756 -0.13873289 79.2164785 -0.11352539 64.82299805 C-0.11367142 64.12001083 -0.11381744 63.41702362 -0.1139679 62.69273376 C-0.11327441 60.38236341 -0.10550857 58.07207492 -0.09765625 55.76171875 C-0.09579006 54.15460759 -0.09436711 52.54749585 -0.09336853 50.94038391 C-0.08955915 46.72031063 -0.07974239 42.50027203 -0.06866455 38.2802124 C-0.05841643 33.97001616 -0.05386363 29.6598143 -0.04882812 25.34960938 C-0.03811867 16.89972371 -0.02106127 8.44986617 0 0 Z " fill="#F9C694" transform="translate(418,578)"/>
<path d="M0 0 C1.25106573 0.68555875 2.50074899 1.37363996 3.75 2.0625 C4.58273437 2.52140625 5.41546875 2.9803125 6.2734375 3.453125 C8.06888154 4.47174368 9.8460502 5.52338241 11.6015625 6.609375 C33.66672113 20.15924706 57.55908354 26.22967506 83.3125 26.25 C84.07632996 26.25067474 84.84015991 26.25134949 85.62713623 26.25204468 C114.06556373 26.21207893 138.3655034 18.7609493 162.67578125 3.9765625 C166 2 166 2 167 2 C168.78470047 24.94151331 168.78470047 24.94151331 165.0078125 31.4140625 C162.13279619 33.70574217 159.27225123 35.33032296 156 37 C153.9888973 38.48508112 151.98922392 39.9857384 150 41.5 C124.95039428 58.43661285 94.50260014 64.98485113 64.625 59.875 C40.29333814 54.45395617 19.74937489 43.74937489 2 26 C1.91273777 24.21928754 1.89300959 22.4351686 1.90234375 20.65234375 C1.90556641 19.57275391 1.90878906 18.49316406 1.91210938 17.38085938 C1.92048828 16.24455078 1.92886719 15.10824219 1.9375 13.9375 C1.94201172 12.79732422 1.94652344 11.65714844 1.95117188 10.48242188 C1.96300253 7.65489649 1.9794859 4.8274736 2 2 C1.34 2 0.68 2 0 2 C0 1.34 0 0.68 0 0 Z " fill="#DDA87A" transform="translate(418,576)"/>
<path d="M0 0 C0.23074219 0.54269531 0.46148437 1.08539063 0.69921875 1.64453125 C2.80502852 6.26399538 4.28260121 8.70504924 9 11 C9.33 11.66 9.66 12.32 10 13 C12.03985361 13.64167451 12.03985361 13.64167451 14.5234375 14.03515625 C15.46316406 14.20466797 16.40289062 14.37417969 17.37109375 14.54882812 C18.85802734 14.8030957 18.85802734 14.8030957 20.375 15.0625 C21.32761719 15.23587891 22.28023438 15.40925781 23.26171875 15.58789062 C36.94395085 18.00403581 50.33573465 18.12559786 64.1875 18.0625 C66.11262904 18.05747525 68.03775936 18.05291406 69.96289062 18.04882812 C74.64195884 18.03789915 79.32096517 18.0206882 84 18 C84 17.01 84 16.02 84 15 C84.99773437 15.19980469 85.99546875 15.39960938 87.0234375 15.60546875 C91.39269153 16.03896055 94.40538697 15.46838178 98.625 14.3125 C99.89601563 13.97863281 101.16703125 13.64476562 102.4765625 13.30078125 C107.82468359 11.32636404 110.87802745 8.81269295 113.4375 3.75 C114.67578125 1.65234375 114.67578125 1.65234375 116 0 C119.33833176 -0.73443299 120.88040931 -0.59711503 123.875 1 C125.75023461 4.33375042 125.61676074 7.34642685 125 11 C119.28399336 29.24041229 106.59766169 44.00442021 90.12890625 53.41796875 C73.54962964 61.80074906 56.07524509 63.1208431 38.15625 58.22265625 C26.39993321 54.28699273 16.72812986 47.71289752 8 39 C7.37480469 38.38640625 6.74960937 37.7728125 6.10546875 37.140625 C2.31592707 33.13722657 -0.54815567 28.68969447 -3.3125 23.9375 C-3.65039551 23.3597583 -3.98829102 22.7820166 -4.33642578 22.18676758 C-7.77216614 16.05201397 -9.67877351 10.0592445 -9 3 C-6.82246161 -0.75020501 -4.02857537 -0.26857169 0 0 Z " fill="#452A25" transform="translate(445,485)"/>
<path d="M0 0 C1.24716797 -0.02900391 2.49433594 -0.05800781 3.77929688 -0.08789062 C14.39951317 -0.15968616 24.78188948 0.9351693 32.9375 8.3125 C34.46241998 11.36233996 34.17312548 13.9548369 33.9375 17.3125 C32.92456055 19.02124023 32.92456055 19.02124023 30.9375 20.3125 C28.17718184 20.55096223 25.64830145 20.61342448 22.89453125 20.53515625 C22.09327316 20.52616806 21.29201508 20.51717987 20.46647644 20.50791931 C17.89387881 20.47789251 15.32221371 20.4282814 12.75 20.375 C-10.36804214 19.92281365 -10.36804214 19.92281365 -32.6875 25.4375 C-37.61484405 27.29280468 -41.69104319 28.82485434 -47.0625 28.3125 C-48.0625 27.3125 -48.0625 27.3125 -48.5 23.75 C-48.39258651 18.29144158 -45.90417652 15.01587617 -42.0625 11.3125 C-29.59736368 1.7205334 -15.19600695 0.11529596 0 0 Z " fill="#402721" transform="translate(428.0625,327.6875)"/>
<path d="M0 0 C4.57299021 3.30227938 8.13772862 7.39182682 10.27734375 12.64453125 C9.90234375 16.39453125 9.90234375 16.39453125 9.27734375 19.64453125 C3.07513834 20.09667301 -1.77265235 18.07927847 -7.47460938 15.953125 C-22.11220863 10.74808103 -36.97537914 11.47829834 -52.26611328 11.76098633 C-55.07714191 11.80906036 -57.88793101 11.83902255 -60.69921875 11.8671875 C-61.9928685 11.89982445 -61.9928685 11.89982445 -63.31265259 11.93312073 C-64.51068008 11.94314369 -64.51068008 11.94314369 -65.73291016 11.95336914 C-66.43316315 11.96606339 -67.13341614 11.97875763 -67.85488892 11.99183655 C-70.34509541 11.5287907 -71.21030538 10.64639091 -72.72265625 8.64453125 C-73.21962959 4.81073694 -73.11366489 2.445168 -71.41015625 -1.04296875 C-67.38006932 -4.51071797 -62.76491837 -5.84279011 -57.72265625 -7.35546875 C-57.13516602 -7.53198975 -56.54767578 -7.70851074 -55.94238281 -7.89038086 C-38.07853694 -11.63330061 -15.79154596 -9.37994083 0 0 Z " fill="#402620" transform="translate(615.72265625,336.35546875)"/>
<path d="M0 0 C3.31365409 2.21581732 6.21982419 4.51445669 8.875 7.5 C8.875 8.16 8.875 8.82 8.875 9.5 C-8.27514748 19.01337968 -24.77068288 21.72406181 -44.125 17.5 C-51.3112947 15.43453516 -57.73362364 12.35060699 -64.125 8.5 C-49.77036436 -11.59648989 -19.53544055 -12.01584637 0 0 Z " fill="#F13F3E" transform="translate(530.125,526.5)"/>
<path d="M0 0 C2.06510556 3.75863503 2.21116925 6.44153774 2.125 10.75 C2.10695313 11.92046875 2.08890625 13.0909375 2.0703125 14.296875 C2.04710937 15.18890625 2.02390625 16.0809375 2 17 C2.85980469 17.2578125 3.71960938 17.515625 4.60546875 17.78125 C8.11722128 19.04208635 11.09881286 20.61100831 14.3125 22.5 C15.36050781 23.1084375 16.40851563 23.716875 17.48828125 24.34375 C20 26 20 26 21 28 C16.85967154 26.45614871 13.06446947 24.48971062 9.1875 22.375 C8.59001953 22.05015625 7.99253906 21.7253125 7.37695312 21.390625 C5.91662865 20.59620849 4.45812509 19.79844624 3 19 C2.78085937 20.16015625 2.56171875 21.3203125 2.3359375 22.515625 C-0.83459446 38.49345992 -6.34978688 49.54897057 -18 61 C-18.81726563 61.81597656 -19.63453125 62.63195312 -20.4765625 63.47265625 C-26.70163396 69.38343257 -33.55612932 73.78401831 -41 78 C-42.19085205 78.67844971 -42.19085205 78.67844971 -43.40576172 79.37060547 C-46.03538748 80.86213119 -48.67206467 82.34020141 -51.3125 83.8125 C-52.1482959 84.28091309 -52.9840918 84.74932617 -53.84521484 85.23193359 C-54.65555176 85.67746582 -55.46588867 86.12299805 -56.30078125 86.58203125 C-57.01403564 86.97624268 -57.72729004 87.3704541 -58.4621582 87.77661133 C-60.67593434 88.84378134 -62.85724149 89.72362008 -65.15861511 90.57646179 C-66.23801503 90.97755929 -66.23801503 90.97755929 -67.339221 91.38675976 C-67.88727807 91.58912904 -68.43533514 91.79149832 -69 92 C-69.00586624 93.07883957 -69.01173248 94.15767914 -69.01777649 95.26921082 C-69.07499141 105.43665579 -69.14774669 115.60388662 -69.23571491 125.7711134 C-69.28044088 130.99819077 -69.31969219 136.22518981 -69.34643555 141.45239258 C-69.37244617 146.49701726 -69.4128329 151.54134081 -69.46318626 156.58577919 C-69.47987011 158.5102495 -69.49137493 160.43477191 -69.49761391 162.35930443 C-69.50723843 165.05520566 -69.53527791 167.75033386 -69.56762695 170.44604492 C-69.56619186 171.24158279 -69.56475677 172.03712067 -69.5632782 172.85676575 C-69.64056883 177.41169826 -70.18039992 180.37653262 -73 184 C-76.70698541 186.90547505 -79.34245939 187.32494469 -84 187 C-84.33 186.34 -84.66 185.68 -85 185 C-84.30132813 184.90203125 -83.60265625 184.8040625 -82.8828125 184.703125 C-81.51769531 184.47882813 -81.51769531 184.47882813 -80.125 184.25 C-78.76761719 184.04117188 -78.76761719 184.04117188 -77.3828125 183.828125 C-74.95753143 183.232763 -74.95753143 183.232763 -73.86802673 181.50048828 C-72.57253315 177.76861413 -72.71688815 174.06834858 -72.72875977 170.1640625 C-72.72091965 168.82683136 -72.72091965 168.82683136 -72.71292114 167.46258545 C-72.70268747 165.52884683 -72.69690184 163.59508072 -72.69503975 161.66131592 C-72.69137839 158.60171623 -72.67465889 155.54244133 -72.65428162 152.48291016 C-72.59884039 143.78489206 -72.56815046 135.08682645 -72.54370117 126.38867188 C-72.52784118 121.06716403 -72.49764079 115.74588762 -72.45893669 110.42449951 C-72.44727514 108.39591933 -72.44135624 106.36729778 -72.44125557 104.33868408 C-72.44106387 101.50418875 -72.42282401 98.67033359 -72.40063477 95.8359375 C-72.40750053 94.57653351 -72.40750053 94.57653351 -72.414505 93.29168701 C-72.37252785 89.92483887 -72.27180113 87.47778643 -70.58740234 84.51686096 C-68.85283448 82.85937425 -67.38481997 81.97331426 -65.18359375 81.02734375 C-64.42820312 80.69089844 -63.6728125 80.35445312 -62.89453125 80.0078125 C-62.08371094 79.65460938 -61.27289062 79.30140625 -60.4375 78.9375 C-46.15430469 72.43119784 -32.64906281 64.61194434 -21 54 C-20.11699219 53.20980469 -19.23398437 52.41960938 -18.32421875 51.60546875 C-12.36049962 45.9951552 -8.51060107 40.36235773 -5 33 C-4.22938624 31.52071893 -3.45857648 30.04153993 -2.6875 28.5625 C-0.5843029 24.12241722 0.1274611 20.90362116 0.09765625 16.015625 C0.09443359 15.08105469 0.09121094 14.14648438 0.08789062 13.18359375 C0.07951172 12.21550781 0.07113281 11.24742187 0.0625 10.25 C0.05798828 9.26644531 0.05347656 8.28289063 0.04882812 7.26953125 C0.03706483 4.84629209 0.02062684 2.42317727 0 0 Z " fill="#222E42" transform="translate(685,643)"/>
<path d="M0 0 C5.45556597 3.4717238 10.08051932 7.16103865 13 13 C13.3125 15.8125 13.3125 15.8125 13 18 C12 19 12 19 8.3125 19.375 C3.517006 19.33233546 1.50680187 17.20835064 -2 14 C-11.10692804 9.52642131 -20.04801821 8.40944621 -29.75 11.6875 C-33.09723184 13.00097072 -35.66331059 14.32215279 -38.3125 16.75 C-41 19 -41 19 -44.25 19.4375 C-47 19 -47 19 -49 17 C-49.12759343 11.64107588 -46.57838686 8.63256433 -43.09765625 4.89453125 C-31.36030619 -5.70624115 -13.86498146 -7.37591057 0 0 Z " fill="#3E2520" transform="translate(597,386)"/>
<path d="M0 0 C0.33 0 0.66 0 1 0 C1.01401855 0.96655518 1.01401855 0.96655518 1.02832031 1.95263672 C1.08265044 4.92747767 1.16616979 7.90084977 1.25 10.875 C1.26417969 11.88820313 1.27835937 12.90140625 1.29296875 13.9453125 C1.61987384 24.14475144 4.64979665 31.70156131 10.625 39.875 C15.38852854 46.41317643 15.38852854 46.41317643 17 50 C17.66 50 18.32 50 19 50 C19 50.66 19 51.32 19 52 C19.55558594 52.23847656 20.11117187 52.47695313 20.68359375 52.72265625 C23.52763484 54.29095547 25.64639269 56.26474162 28.0625 58.4375 C39.46860976 68.25420417 53.1217711 75.00094613 66.97265625 80.66015625 C70 82 70 82 72 84 C73.14318681 89.54425043 73.10523067 94.97950273 73.02172852 100.60717773 C73.01212097 101.54454269 73.00251343 102.48190765 72.99261475 103.44767761 C72.95980108 106.52639703 72.91940227 109.60496661 72.87890625 112.68359375 C72.85458788 114.82592755 72.83074519 116.9682668 72.80735779 119.11061096 C72.74468771 124.73467235 72.67557308 130.35863664 72.60510254 135.98260498 C72.53426444 141.72729083 72.46954024 147.47204524 72.40429688 153.21679688 C72.27550478 164.47793994 72.13990227 175.73898987 72 187 C71.67 187 71.34 187 71 187 C70.67 154 70.34 121 70 87 C69.01 88.98 69.01 88.98 68 91 C41.60796616 79.57087098 13.87480328 64.79337938 2.0625 36.9375 C0.5755629 32.35693538 0.05902225 27.51646652 -0.5703125 22.7578125 C-0.84933848 20.04783537 -0.84933848 20.04783537 -2 18 C-3.6396875 19.0209375 -3.6396875 19.0209375 -5.3125 20.0625 C-7.17578125 21.22265625 -7.17578125 21.22265625 -9 22 C-9.99 21.67 -10.98 21.34 -12 21 C-10.54462432 20.16151196 -9.08559627 19.32936066 -7.625 18.5 C-6.40683594 17.80390625 -6.40683594 17.80390625 -5.1640625 17.09375 C-3 16 -3 16 -1 16 C-1.01160156 15.34773437 -1.02320313 14.69546875 -1.03515625 14.0234375 C-1.08470994 9.2238086 -0.99413751 4.72215315 0 0 Z " fill="#202B40" transform="translate(319,644)"/>
<path d="M0 0 C4.39209576 3.2366588 8.02114411 6.43234961 10.390625 11.38671875 C10.10491071 15.67243304 10.10491071 15.67243304 8.390625 17.38671875 C5.22806337 17.94016703 3.12037635 17.82679781 0.34375 16.15234375 C-0.38328125 15.6315625 -1.1103125 15.11078125 -1.859375 14.57421875 C-9.28036834 9.31612799 -17.54804754 7.16295829 -26.609375 8.38671875 C-33.46079542 10.08280465 -38.46314849 12.82150181 -43.88671875 17.25390625 C-45.609375 18.38671875 -45.609375 18.38671875 -48.546875 18.32421875 C-50.609375 17.38671875 -50.609375 17.38671875 -51.609375 16.38671875 C-51.50123801 10.97986915 -50.14017704 7.92500266 -46.546875 4.08984375 C-33.32945025 -7.52869898 -15.08949593 -9.32928416 0 0 Z " fill="#3F2620" transform="translate(445.609375,387.61328125)"/>
<path d="M0 0 C7.14809961 5.29619921 7.14809961 5.29619921 9 9 C9.125 12.0625 9.125 12.0625 9 15 C8 16 8 16 5.5625 16.3125 C2.15868367 16.01391962 0.62111113 15.4298473 -2.375 14 C-10.05851896 10.76666397 -19.41193327 10.38004279 -27.296875 13.1640625 C-30.15518766 14.50183532 -30.15518766 14.50183532 -32.66796875 16.00390625 C-35.55435613 17.23678528 -37.0482194 16.9329462 -40 16 C-40.33 15.67 -40.66 15.34 -41 15 C-41 10.24286193 -40.23438042 7.7896199 -36.9375 4.3125 C-26.52908528 -5.21783858 -12.35993911 -7.036599 0 0 Z " fill="#DEA778" transform="translate(518,436)"/>
<path d="M0 0 C0.66 0 1.32 0 2 0 C3.38378906 1.40063477 3.38378906 1.40063477 5.015625 3.37890625 C9.3546059 8.47732098 14.01554097 13.20751758 18.75 17.9375 C19.63816406 18.8248584 20.52632813 19.7122168 21.44140625 20.62646484 C27.3751816 26.5048554 33.39698862 31.88631138 40 37 C41.87789119 38.60078117 43.75271717 40.20516285 45.625 41.8125 C59.42111537 53.2886011 74.59210856 62.85461531 90 72 C90.81307617 72.48355957 91.62615234 72.96711914 92.46386719 73.46533203 C115.28267617 86.88679729 139.96473997 95.72646334 165 104 C165 104.33 165 104.66 165 105 C157.52149351 104.50298607 151.19312146 102.60252263 144.1875 100 C143.09453613 99.59990723 142.00157227 99.19981445 140.87548828 98.78759766 C131.46298977 95.28581405 122.31304341 91.32179524 113.23095703 87.04345703 C111.07861654 86.03677031 108.91565406 85.05876868 106.74609375 84.08984375 C100.7346752 81.38832938 95.01073814 78.607618 89.6171875 74.78125 C86.69710933 72.79385351 83.69761961 70.98287642 80.66992188 69.1652832 C70.83506298 63.26090489 61.07473341 57.14286403 52.30078125 49.71484375 C50.0773607 47.70119927 50.0773607 47.70119927 47 48 C46.62488281 47.10474609 46.62488281 47.10474609 46.2421875 46.19140625 C44.81810075 43.67910227 43.46390145 42.6124276 41.125 40.9375 C36.62054884 37.56460179 32.48957336 33.872002 28.37353516 30.04638672 C25.62700856 27.49397948 22.85627074 24.99122086 20 22.5625 C16.44061434 19.4742095 13.08904917 16.19741441 9.75 12.875 C9.24210938 12.37170166 8.73421875 11.86840332 8.2109375 11.34985352 C0 3.1049753 0 3.1049753 0 0 Z " fill="#212737" transform="translate(241,747)"/>
<path d="M0 0 C0.99 0.495 0.99 0.495 2 1 C-12.8960488 15.48434896 -31.52701687 28.48816587 -50 38 C-50 38.66 -50 39.32 -50 40 C-50.65613281 40.07476563 -51.31226563 40.14953125 -51.98828125 40.2265625 C-56.1181697 41.28715642 -59.47889583 43.30840906 -63.1875 45.375 C-94.49773624 62.25610284 -128.7567512 72.80075542 -163.8125 78.375 C-164.855271 78.54290039 -165.89804199 78.71080078 -166.97241211 78.88378906 C-174.02121666 79.92972977 -180.87935422 80.18519852 -188 80 C-188 79.67 -188 79.34 -188 79 C-187.10619629 78.87995605 -186.21239258 78.75991211 -185.29150391 78.63623047 C-122.79347081 70.1330423 -67.41276223 50.38034248 -16.1875 12.875 C-14.98540894 11.99533569 -14.98540894 11.99533569 -13.7590332 11.09790039 C-8.99641388 7.57696929 -4.44984455 3.90920923 0 0 Z " fill="#212737" transform="translate(724,784)"/>
<path d="M0 0 C4.88567152 1.4694888 9.20660639 3.48627673 13.6875 5.875 C14.41791504 6.26357178 15.14833008 6.65214355 15.90087891 7.05249023 C28.84617856 14.05961676 41.29948613 22.07019605 53 31 C54.00933594 31.75539062 55.01867187 32.51078125 56.05859375 33.2890625 C66.98925449 41.52097851 77.50905316 50.22685788 87.05078125 60.05078125 C88.83862361 61.83862361 90.67458688 63.4565307 92.625 65.0625 C95.8027898 67.72280568 98.45352369 70.66470567 101.1328125 73.8203125 C103.1198986 76.13996532 105.18047293 78.37871617 107.25 80.625 C117.9844943 92.57437795 127.16556215 105.60488369 136 119 C136.639375 119.96808594 137.27875 120.93617188 137.9375 121.93359375 C138.288125 122.61550781 138.63875 123.29742187 139 124 C138.67 124.66 138.34 125.32 138 126 C137.60321045 125.40687012 137.2064209 124.81374023 136.79760742 124.20263672 C129.31753407 113.04997794 121.86506919 101.94119265 113.30517578 91.58154297 C112.4427617 90.53651521 111.58681329 89.48611402 110.73779297 88.43017578 C103.83228459 79.8453071 96.19915423 71.9920251 88.4375 64.1875 C87.95462524 63.69935822 87.47175049 63.21121643 86.97424316 62.70828247 C80.33178203 56.00986138 73.40651518 49.84648003 66 44 C64.77313137 43.01079622 63.54652382 42.02126846 62.3203125 41.03125 C49.8060118 31.07166638 36.68122247 22.4240008 22.98242188 14.19677734 C21.31883381 13.19247824 19.665903 12.17055487 18.015625 11.14453125 C12.22806164 7.55955968 6.253307 4.6867821 0 2 C0 1.34 0 0.68 0 0 Z " fill="#702F71" transform="translate(662,216)"/>
<path d="M0 0 C0.66 0.33 1.32 0.66 2 1 C1.05382812 1.87398438 0.10765625 2.74796875 -0.8671875 3.6484375 C-22.10439438 23.22535414 -22.10439438 23.22535414 -41 45 C-42.01454453 46.23436251 -43.03434677 47.46444959 -44.0625 48.6875 C-44.701875 49.450625 -45.34125 50.21375 -46 51 C-46.33 50.34 -46.66 49.68 -47 49 C-41.83192113 42.30667149 -36.35331882 36.0144421 -30.60546875 29.82421875 C-28.44171794 27.47880371 -26.33133717 25.10559284 -24.25 22.6875 C-16.93127558 14.27357454 -8.58479784 7.08245822 0 0 Z " fill="#743276" transform="translate(273,260)"/>
<path d="M0 0 C14.17784355 6.00206192 28.38457965 27.48153232 35 41 C34.505 41.99 34.505 41.99 34 43 C33.68361572 42.50709473 33.36723145 42.01418945 33.04125977 41.50634766 C26.91503861 32.01064947 20.8429202 23.16087642 13 15 C11.76409813 13.56828651 10.53457056 12.13103749 9.3125 10.6875 C7.20550505 8.25067173 5.07605455 6.13936731 2.5625 4.125 C1.716875 3.42375 0.87125 2.7225 0 2 C0 1.34 0 0.68 0 0 Z " fill="#193643" transform="translate(736,693)"/>
<path d="M0 0 C12.54 0.33 25.08 0.66 38 1 C38 1.33 38 1.66 38 2 C22.98815948 2.73696984 8.0298476 3.14090482 -7 3 C-7 2.67 -7 2.34 -7 2 C-3.535 1.505 -3.535 1.505 0 1 C0 0.67 0 0.34 0 0 Z " fill="#F4BD8F" transform="translate(546,230)"/>
<path d="M0 0 C0.87454834 0.04713135 1.74909668 0.0942627 2.65014648 0.14282227 C4.06650391 0.21533203 4.06650391 0.21533203 5.51147461 0.28930664 C6.50469727 0.34538086 7.49791992 0.40145508 8.52124023 0.45922852 C9.51833008 0.51143555 10.51541992 0.56364258 11.54272461 0.61743164 C14.01501545 0.74755221 16.48694653 0.88253033 18.95874023 1.02172852 C18.95874023 1.35172852 18.95874023 1.68172852 18.95874023 2.02172852 C15.35530713 2.36331199 11.75090571 2.69342668 8.14624023 3.02172852 C7.14141602 3.11711914 6.1365918 3.21250977 5.10131836 3.31079102 C-1.63328688 3.91712203 -8.28059231 4.14190332 -15.04125977 4.02172852 C-12.20942195 2.54197947 -10.04603151 1.7407234 -6.85375977 1.45922852 C-3.63911904 1.09033532 -2.78278134 0.02962176 0 0 Z " fill="#3A221E" transform="translate(474.041259765625,135.978271484375)"/>
<path d="M0 0 C2.88348199 0.59798253 4.98000818 1.44265323 7.42578125 3.07421875 C8.36925415 3.70070312 8.36925415 3.70070312 9.33178711 4.33984375 C9.98542236 4.78457031 10.63905762 5.22929687 11.3125 5.6875 C11.98095947 6.13867188 12.64941895 6.58984375 13.33813477 7.0546875 C17.82133562 10.11398037 22.10585197 13.20083119 26 17 C26 17.66 26 18.32 26 19 C22.73615581 17.53127012 20.23970864 15.66722289 17.5 13.375 C12.62592337 9.39571654 7.56236039 5.97023446 2.2734375 2.56640625 C1.52320313 2.04949219 0.77296875 1.53257812 0 1 C0 0.67 0 0.34 0 0 Z " fill="#371F1D" transform="translate(607,160)"/>
<path d="M0 0 C0.66 0.33 1.32 0.66 2 1 C1.19175781 1.73605469 0.38351562 2.47210938 -0.44921875 3.23046875 C-1.52870221 4.21608409 -2.60812612 5.20176465 -3.6875 6.1875 C-4.48317383 6.91163086 -4.48317383 6.91163086 -5.29492188 7.65039062 C-7.82657589 9.96460196 -10.29423155 12.29762816 -12.70703125 14.73828125 C-15 17 -15 17 -18 19 C-17.16424487 12.29848199 -9.76908536 7.19869277 -4.78125 3.23828125 C-3.21555311 2.1185513 -1.61230834 1.05150544 0 0 Z " fill="#3A2120" transform="translate(388,163)"/>
<path d="M0 0 C0.33 0.99 0.66 1.98 1 3 C-2.16363636 7.58181818 -2.16363636 7.58181818 -5 9 C-9.91322066 9.37080911 -13.16753356 9.26886843 -17 6 C-17.8125 3.3125 -17.8125 3.3125 -18 1 C-17.34 1.825 -16.68 2.65 -16 3.5 C-13.00029417 5.99975486 -12.49898865 6.39301879 -8.875 6.5 C-5.15515508 6.32461621 -5.15515508 6.32461621 -3.125 4.6875 C-2.568125 3.8521875 -2.568125 3.8521875 -2 3 C-1.34 2.01 -0.68 1.02 0 0 Z " fill="#222839" transform="translate(409,829)"/>
<path d="M0 0 C0.66 0.33 1.32 0.66 2 1 C1.04738281 1.74765625 0.09476562 2.4953125 -0.88671875 3.265625 C-2.1536552 4.26040473 -3.42058176 5.25519707 -4.6875 6.25 C-5.31333984 6.74113281 -5.93917969 7.23226562 -6.58398438 7.73828125 C-7.19951172 8.22167969 -7.81503906 8.70507812 -8.44921875 9.203125 C-9.05427246 9.67685547 -9.65932617 10.15058594 -10.28271484 10.63867188 C-11.81788994 11.85563752 -13.32689856 13.10544377 -14.83203125 14.359375 C-17 16 -17 16 -19 16 C-19 15.34 -19 14.68 -19 14 C-17.25585938 12.48779297 -17.25585938 12.48779297 -14.84375 10.7421875 C-13.98652344 10.11699219 -13.12929688 9.49179688 -12.24609375 8.84765625 C-11.33988281 8.19667969 -10.43367188 7.54570312 -9.5 6.875 C-8.59378906 6.21628906 -7.68757813 5.55757812 -6.75390625 4.87890625 C-4.50674387 3.24675674 -2.25535528 1.62079984 0 0 Z " fill="#733073" transform="translate(295,243)"/>
<path d="M0 0 C5.5570253 4.44562024 6.53240103 13.69614499 7.4765625 20.3671875 C7.70798868 22.91287547 7.89576356 25.44620724 8 28 C5.83935921 24.27675293 4.97445658 20.27405343 4 16.125 C2.86015237 11.32517287 1.56576243 6.68330727 0 2 C0 1.34 0 0.68 0 0 Z " fill="#342515" transform="translate(663,225)"/>
<path d="M0 0 C0.33 0.66 0.66 1.32 1 2 C0.00390625 3.9453125 0.00390625 3.9453125 -1.4375 6.125 C-1.91058594 6.84945312 -2.38367188 7.57390625 -2.87109375 8.3203125 C-3.24363281 8.87460938 -3.61617187 9.42890625 -4 10 C-4.33 9.01 -4.66 8.02 -5 7 C-4.34 6.01 -3.68 5.02 -3 4 C-7.29 3.34 -11.58 2.68 -16 2 C-16 1.67 -16 1.34 -16 1 C-8.08 0.505 -8.08 0.505 0 0 Z " fill="#3A211F" transform="translate(611,145)"/>
<path d="M0 0 C0.66 0.33 1.32 0.66 2 1 C0.92424145 3.23310552 -0.16022483 5.46124501 -1.25 7.6875 C-1.55035156 8.31333984 -1.85070312 8.93917969 -2.16015625 9.58398438 C-4.06496235 13.45438826 -6.15828214 16.7119061 -9 20 C-8.40440894 15.13127946 -6.27522585 11.40671159 -3.9375 7.1875 C-3.56044922 6.49462891 -3.18339844 5.80175781 -2.79492188 5.08789062 C-1.86916148 3.38871015 -0.93537688 1.69390575 0 0 Z " fill="#733273" transform="translate(199,349)"/>
<path d="M0 0 C1.21236328 0.01353516 1.21236328 0.01353516 2.44921875 0.02734375 C3.37154297 0.04474609 3.37154297 0.04474609 4.3125 0.0625 C1.25199913 2.10283391 -0.03996464 2.36281464 -3.5625 2.8125 C-7.35853123 3.4895699 -9.35215406 4.17569722 -11.8125 7.1875 C-12.43125 8.13625 -13.05 9.085 -13.6875 10.0625 C-14.0175 9.0725 -14.3475 8.0825 -14.6875 7.0625 C-13.58831184 6.07774786 -12.4829398 5.09989527 -11.375 4.125 C-10.76011719 3.57972656 -10.14523437 3.03445313 -9.51171875 2.47265625 C-6.4293796 0.08994868 -3.75482588 -0.05441777 0 0 Z " fill="#F8E6B3" transform="translate(673.6875,351.9375)"/>
<path d="M0 0 C5.28 0 10.56 0 16 0 C15.01 1.485 15.01 1.485 14 3 C10.9609375 3.29296875 10.9609375 3.29296875 7.375 3.1875 C6.18648437 3.16042969 4.99796875 3.13335937 3.7734375 3.10546875 C2.85820313 3.07066406 1.94296875 3.03585938 1 3 C0.67 2.01 0.34 1.02 0 0 Z " fill="#5B392F" transform="translate(532,228)"/>
<path d="M0 0 C5.39691512 1.49276376 10.69905784 3.19695845 16 5 C16 5.33 16 5.66 16 6 C10.13190493 5.47606294 5.45126259 4.23891142 0 2 C0 1.34 0 0.68 0 0 Z " fill="#202637" transform="translate(392,728)"/>
<path d="M0 0 C0.99 0.33 1.98 0.66 3 1 C2.67 6.61 2.34 12.22 2 18 C1.67 18 1.34 18 1 18 C0.67 12.06 0.34 6.12 0 0 Z " fill="#893F8E" transform="translate(157,475)"/>
<path d="M0 0 C0.66 0.33 1.32 0.66 2 1 C-4.435 6.94 -4.435 6.94 -11 13 C-11 10 -11 10 -9.609375 8.28125 C-8.99578125 7.6934375 -8.3821875 7.105625 -7.75 6.5 C-6.79673828 5.58541016 -6.79673828 5.58541016 -5.82421875 4.65234375 C-3.9647835 2.96810154 -2.07578868 1.4115363 0 0 Z " fill="#6F2E71" transform="translate(273,260)"/>
<path d="M0 0 C0.86289292 2.41610017 1.19274829 3.54965352 0.1640625 5.953125 C-0.22007812 6.62859375 -0.60421875 7.3040625 -1 8 C-1.56811297 9.57403776 -2.10988621 11.1578301 -2.625 12.75 C-2.88539063 13.54921875 -3.14578125 14.3484375 -3.4140625 15.171875 C-3.60742188 15.77515625 -3.80078125 16.3784375 -4 17 C-5.6852084 12.92320841 -4.16939007 10.16924407 -2.5625 6.25 C-2.08941406 5.07953125 -1.61632812 3.9090625 -1.12890625 2.703125 C-0.75636719 1.81109375 -0.38382812 0.9190625 0 0 Z " fill="#352612" transform="translate(347,216)"/>
<path d="M0 0 C2.31 0.33 4.62 0.66 7 1 C7 1.66 7 2.32 7 3 C9.64 3.66 12.28 4.32 15 5 C15 5.33 15 5.66 15 6 C8.84777564 5.56826496 5.18082051 4.34594658 0 1 C0 0.67 0 0.34 0 0 Z " fill="#ED272B" transform="translate(472,537)"/>
<path d="M0 0 C8.57142857 -0.28571429 8.57142857 -0.28571429 12 2 C11.67 2.99 11.34 3.98 11 5 C9.35153231 4.55123384 7.70626545 4.09069512 6.0625 3.625 C5.14597656 3.36976563 4.22945312 3.11453125 3.28515625 2.8515625 C1 2 1 2 0 0 Z " fill="#351F1A" transform="translate(587,229)"/>
<path d="M0 0 C0.66 0.33 1.32 0.66 2 1 C-3.14285714 7.57142857 -3.14285714 7.57142857 -7 9 C-5.64978174 4.58110387 -3.73884332 2.65654657 0 0 Z " fill="#301B16" transform="translate(389,337)"/>
<path d="M0 0 C0.99 1.32 1.98 2.64 3 4 C2.01 6.31 1.02 8.62 0 11 C-0.33 11 -0.66 11 -1 11 C-0.67 7.37 -0.34 3.74 0 0 Z " fill="#EFCF93" transform="translate(309,375)"/>
<path d="M0 0 C1.27596315 3.82788944 0.62344752 5.36656983 -1 9 C-3.125 10.375 -3.125 10.375 -5 11 C-3.55049545 7.2089881 -1.84827434 3.6125362 0 0 Z " fill="#141432" transform="translate(584,658)"/>
<path d="M0 0 C1.65 0 3.3 0 5 0 C5 0.66 5 1.32 5 2 C5.66 2.33 6.32 2.66 7 3 C7 3.66 7 4.32 7 5 C3.74572241 4.43891766 2.12035493 3.54442592 0 1 C0 0.67 0 0.34 0 0 Z " fill="#55352E" transform="translate(450,496)"/>
<path d="M0 0 C3.3 0.33 6.6 0.66 10 1 C10 1.33 10 1.66 10 2 C6.94152152 2.54372951 4.11227195 3 1 3 C0.67 2.01 0.34 1.02 0 0 Z " fill="#242B3A" transform="translate(432,858)"/>
<path d="M0 0 C0.33 0 0.66 0 1 0 C2.35384615 6.4 2.35384615 6.4 0.5625 9.4375 C0.046875 9.953125 -0.46875 10.46875 -1 11 C-1.125 3.375 -1.125 3.375 0 0 Z " fill="#F7E2B3" transform="translate(352,324)"/>
<path d="M0 0 C3.36720387 1.39332574 4.9859524 2.9789286 7 6 C4 6 4 6 1.8125 4.125 C0 2 0 2 0 0 Z " fill="#3F2622" transform="translate(633,179)"/>
<path d="M0 0 C3.375 -0.125 3.375 -0.125 7 0 C7.66 0.66 8.32 1.32 9 2 C8 3 8 3 5.0625 3.25 C4.051875 3.1675 3.04125 3.085 2 3 C1.34 2.01 0.68 1.02 0 0 Z " fill="#8E4588" transform="translate(659,458)"/>
<path d="M0 0 C0.99 0.66 1.98 1.32 3 2 C2.67 2.66 2.34 3.32 2 4 C0.68 3.67 -0.64 3.34 -2 3 C-1.34 2.67 -0.68 2.34 0 2 C0 1.34 0 0.68 0 0 Z " fill="#AA7A60" transform="translate(537,496)"/>
<path d="M0 0 C1.32 0 2.64 0 4 0 C3.67 0.66 3.34 1.32 3 2 C2.01 2.33 1.02 2.66 0 3 C0 2.01 0 1.02 0 0 Z " fill="#714161" transform="translate(344,209)"/>
<path d="M0 0 C0.99 0.99 1.98 1.98 3 3 C1.68 2.67 0.36 2.34 -1 2 C-0.67 1.34 -0.34 0.68 0 0 Z " fill="#6F4879" transform="translate(226,733)"/>
<path d="M0 0 C0.33 0 0.66 0 1 0 C1 2.31 1 4.62 1 7 C0.67 7 0.34 7 0 7 C0 4.69 0 2.38 0 0 Z " fill="#8C4E90" transform="translate(153,530)"/>
<path d="M0 0 C2.31 0 4.62 0 7 0 C7 0.33 7 0.66 7 1 C4.69 1 2.38 1 0 1 C0 0.67 0 0.34 0 0 Z " fill="#5B3E38" transform="translate(464,136)"/>
<path d="M0 0 C0.66 0.33 1.32 0.66 2 1 C1.67 1.66 1.34 2.32 1 3 C0.34 3 -0.32 3 -1 3 C-0.67 2.01 -0.34 1.02 0 0 Z " fill="#844C89" transform="translate(209,709)"/>
<path d="M0 0 C0.33 0 0.66 0 1 0 C1 1.98 1 3.96 1 6 C0.67 6 0.34 6 0 6 C0 4.02 0 2.04 0 0 Z " fill="#8C4E8F" transform="translate(154,547)"/>
<path d="M0 0 C1.98 0 3.96 0 6 0 C6 0.33 6 0.66 6 1 C4.02 1 2.04 1 0 1 C0 0.67 0 0.34 0 0 Z " fill="#E4B188" transform="translate(544,487)"/>
<path d="M0 0 C0.66 0.33 1.32 0.66 2 1 C1.67 1.66 1.34 2.32 1 3 C0.34 2.34 -0.32 1.68 -1 1 C-0.67 0.67 -0.34 0.34 0 0 Z " fill="#7C4983" transform="translate(218,722)"/>
<path d="M0 0 C0.66 0.66 1.32 1.32 2 2 C0.68 1.67 -0.64 1.34 -2 1 C-1.34 0.67 -0.68 0.34 0 0 Z " fill="#884C8B" transform="translate(194,684)"/>
<path d="M0 0 C0.66 0.66 1.32 1.32 2 2 C1.01 2.495 1.01 2.495 0 3 C0 2.01 0 1.02 0 0 Z " fill="#364256" transform="translate(312,811)"/>
<path d="M0 0 C0.99 0.33 1.98 0.66 3 1 C2.01 1 1.02 1 0 1 C0 0.67 0 0.34 0 0 Z " fill="#364257" transform="translate(399,734)"/>
<path d="M0 0 C3 1 3 1 3 1 Z " fill="#3B4457" transform="translate(439,862)"/>
<path d="M0 0 C0.66 0 1.32 0 2 0 C1.67 0.66 1.34 1.32 1 2 C0.67 1.34 0.34 0.68 0 0 Z " fill="#394357" transform="translate(378,845)"/>
<path d="" fill="#344258" transform="translate(0,0)"/>
<path d="" fill="#364257" transform="translate(0,0)"/>
<path d="M0 0 C0.33 0.66 0.66 1.32 1 2 C0.34 1.67 -0.32 1.34 -1 1 C-0.67 0.67 -0.34 0.34 0 0 Z " fill="#854A8A" transform="translate(201,696)"/>
<path d="" fill="#894C8D" transform="translate(0,0)"/>
<path d="" fill="#894C8E" transform="translate(0,0)"/>
<path d="" fill="#894C8B" transform="translate(0,0)"/>
<path d="M0 0 C3 1 3 1 3 1 Z " fill="#A67459" transform="translate(521,501)"/>
<path d="M0 0 C3 1 3 1 3 1 Z " fill="#AB7B5E" transform="translate(483,501)"/>
<path d="M0 0 C3 1 3 1 3 1 Z " fill="#A7775C" transform="translate(479,501)"/>
<path d="M0 0 C3 1 3 1 3 1 Z " fill="#EAB689" transform="translate(540,487)"/>
<path d="M0 0 C3 1 3 1 3 1 Z " fill="#E2AC85" transform="translate(459,487)"/>
<path d="" fill="#884A8D" transform="translate(0,0)"/>
<path d="M0 0 C3 1 3 1 3 1 Z " fill="#864B86" transform="translate(320,224)"/>
<path d="M0 0 C3 1 3 1 3 1 Z " fill="#5B3F38" transform="translate(456,137)"/>
<path d="M0 0 C2 1 2 1 2 1 Z " fill="#3C465A" transform="translate(520,867)"/>
<path d="M0 0 C2 1 2 1 2 1 Z " fill="#3C4658" transform="translate(494,867)"/>
<path d="M0 0 C2 1 2 1 2 1 Z " fill="#3B4455" transform="translate(558,863)"/>
<path d="M0 0 C2 1 2 1 2 1 Z " fill="#3A4558" transform="translate(448,863)"/>
<path d="M0 0 C2 1 2 1 2 1 Z " fill="#384256" transform="translate(429,860)"/>
<path d="M0 0 C2 1 2 1 2 1 Z " fill="#384456" transform="translate(425,859)"/>
<path d="M0 0 C2 1 2 1 2 1 Z " fill="#3A4357" transform="translate(394,851)"/>
<path d="M0 0 C2 1 2 1 2 1 Z " fill="#384359" transform="translate(626,845)"/>
<path d="M0 0 C2 1 2 1 2 1 Z " fill="#384659" transform="translate(395,833)"/>
<path d="" fill="#534467" transform="translate(0,0)"/>
<path d="M0 0 C2 1 2 1 2 1 Z " fill="#3A4258" transform="translate(403,735)"/>
<path d="" fill="#7A487F" transform="translate(0,0)"/>
<path d="" fill="#7C4A84" transform="translate(0,0)"/>
<path d="" fill="#844A87" transform="translate(0,0)"/>
<path d="" fill="#864889" transform="translate(0,0)"/>
<path d="" fill="#884C8B" transform="translate(0,0)"/>
<path d="" fill="#894A8C" transform="translate(0,0)"/>
<path d="" fill="#884A8C" transform="translate(0,0)"/>
<path d="" fill="#884B8B" transform="translate(0,0)"/>
<path d="" fill="#8A4C8C" transform="translate(0,0)"/>
<path d="" fill="#894F8C" transform="translate(0,0)"/>
<path d="" fill="#8B4D8E" transform="translate(0,0)"/>
<path d="" fill="#8A4C8D" transform="translate(0,0)"/>
<path d="M0 0 C2 1 2 1 2 1 Z " fill="#A97659" transform="translate(508,502)"/>
<path d="M0 0 C2 1 2 1 2 1 Z " fill="#A77559" transform="translate(499,502)"/>
<path d="M0 0 C2 1 2 1 2 1 Z " fill="#A6765A" transform="translate(475,500)"/>
<path d="" fill="#AE7D63" transform="translate(0,0)"/>
<path d="M0 0 C2 1 2 1 2 1 Z " fill="#A4745A" transform="translate(462,498)"/>
<path d="" fill="#8D4E90" transform="translate(0,0)"/>
<path d="M0 0 C2 1 2 1 2 1 Z " fill="#CFA081" transform="translate(553,488)"/>
<path d="M0 0 C2 1 2 1 2 1 Z " fill="#D7A17C" transform="translate(452,487)"/>
<path d="M0 0 C2 1 2 1 2 1 Z " fill="#E5B28A" transform="translate(556,486)"/>
<path d="" fill="#894D8E" transform="translate(0,0)"/>
<path d="" fill="#8A4C8C" transform="translate(0,0)"/>
<path d="" fill="#8A4D8E" transform="translate(0,0)"/>
<path d="M0 0 C2 1 2 1 2 1 Z " fill="#874A8B" transform="translate(200,336)"/>
<path d="" fill="#8A4A89" transform="translate(0,0)"/>
<path d="" fill="#894A8B" transform="translate(0,0)"/>
<path d="" fill="#884B89" transform="translate(0,0)"/>
<path d="" fill="#5A3F3A" transform="translate(0,0)"/>
<path d="M0 0 C2 1 2 1 2 1 Z " fill="#5B3D37" transform="translate(628,172)"/>
<path d="M0 0 C2 1 2 1 2 1 Z " fill="#563C37" transform="translate(611,160)"/>
<path d="M0 0 C2 1 2 1 2 1 Z " fill="#593C38" transform="translate(389,160)"/>
<path d="M0 0 C2 1 2 1 2 1 Z " fill="#5B3E38" transform="translate(419,145)"/>
<path d="M0 0 C2 1 2 1 2 1 Z " fill="#5C3D38" transform="translate(438,140)"/>
<path d="M0 0 C2 1 2 1 2 1 Z " fill="#5B3E38" transform="translate(507,133)"/>
<path d="M0 0 C2 1 2 1 2 1 Z " fill="#5A3F39" transform="translate(542,129)"/>
<path d="M0 0 C2 1 2 1 2 1 Z " fill="#5B4039" transform="translate(547,128)"/>
<path d="" fill="#262A2F" transform="translate(0,0)"/>
<path d="" fill="#3B4557" transform="translate(0,0)"/>
<path d="" fill="#3D4659" transform="translate(0,0)"/>
<path d="" fill="#3B4458" transform="translate(0,0)"/>
<path d="" fill="#3C4659" transform="translate(0,0)"/>
<path d="" fill="#394557" transform="translate(0,0)"/>
<path d="" fill="#3A4256" transform="translate(0,0)"/>
<path d="" fill="#3B445A" transform="translate(0,0)"/>
<path d="" fill="#3B435A" transform="translate(0,0)"/>
<path d="" fill="#3A4557" transform="translate(0,0)"/>
<path d="" fill="#394557" transform="translate(0,0)"/>
<path d="" fill="#3C4657" transform="translate(0,0)"/>
<path d="" fill="#3A4559" transform="translate(0,0)"/>
<path d="" fill="#394659" transform="translate(0,0)"/>
<path d="" fill="#394558" transform="translate(0,0)"/>
<path d="" fill="#3A4357" transform="translate(0,0)"/>
<path d="" fill="#374255" transform="translate(0,0)"/>
<path d="" fill="#3A4156" transform="translate(0,0)"/>
<path d="" fill="#3A4454" transform="translate(0,0)"/>
<path d="" fill="#3B4559" transform="translate(0,0)"/>
<path d="" fill="#394658" transform="translate(0,0)"/>
<path d="" fill="#3B4458" transform="translate(0,0)"/>
<path d="" fill="#384556" transform="translate(0,0)"/>
<path d="" fill="#384257" transform="translate(0,0)"/>
<path d="" fill="#394257" transform="translate(0,0)"/>
<path d="" fill="#374256" transform="translate(0,0)"/>
<path d="" fill="#364256" transform="translate(0,0)"/>
<path d="" fill="#384256" transform="translate(0,0)"/>
<path d="" fill="#374357" transform="translate(0,0)"/>
<path d="" fill="#384254" transform="translate(0,0)"/>
<path d="" fill="#384355" transform="translate(0,0)"/>
<path d="" fill="#3A455C" transform="translate(0,0)"/>
<path d="" fill="#353E55" transform="translate(0,0)"/>
<path d="" fill="#374254" transform="translate(0,0)"/>
<path d="" fill="#38445B" transform="translate(0,0)"/>
<path d="" fill="#374459" transform="translate(0,0)"/>
<path d="" fill="#343F56" transform="translate(0,0)"/>
<path d="" fill="#384459" transform="translate(0,0)"/>
<path d="" fill="#38445B" transform="translate(0,0)"/>
<path d="" fill="#394358" transform="translate(0,0)"/>
<path d="" fill="#38445C" transform="translate(0,0)"/>
<path d="" fill="#3A4259" transform="translate(0,0)"/>
<path d="" fill="#364154" transform="translate(0,0)"/>
<path d="" fill="#394356" transform="translate(0,0)"/>
<path d="" fill="#374257" transform="translate(0,0)"/>
<path d="" fill="#374356" transform="translate(0,0)"/>
<path d="" fill="#364359" transform="translate(0,0)"/>
<path d="" fill="#384155" transform="translate(0,0)"/>
<path d="" fill="#384255" transform="translate(0,0)"/>
<path d="" fill="#384255" transform="translate(0,0)"/>
<path d="" fill="#394258" transform="translate(0,0)"/>
<path d="" fill="#384456" transform="translate(0,0)"/>
<path d="" fill="#374156" transform="translate(0,0)"/>
<path d="" fill="#384156" transform="translate(0,0)"/>
<path d="" fill="#37455B" transform="translate(0,0)"/>
<path d="" fill="#384355" transform="translate(0,0)"/>
<path d="" fill="#394357" transform="translate(0,0)"/>
<path d="" fill="#374457" transform="translate(0,0)"/>
<path d="" fill="#354257" transform="translate(0,0)"/>
<path d="" fill="#353F54" transform="translate(0,0)"/>
<path d="" fill="#394258" transform="translate(0,0)"/>
<path d="" fill="#364359" transform="translate(0,0)"/>
<path d="" fill="#364154" transform="translate(0,0)"/>
<path d="" fill="#394258" transform="translate(0,0)"/>
<path d="" fill="#3A4358" transform="translate(0,0)"/>
<path d="" fill="#394358" transform="translate(0,0)"/>
<path d="" fill="#3A4458" transform="translate(0,0)"/>
<path d="" fill="#364358" transform="translate(0,0)"/>
<path d="" fill="#3E4458" transform="translate(0,0)"/>
<path d="" fill="#394254" transform="translate(0,0)"/>
<path d="" fill="#364358" transform="translate(0,0)"/>
<path d="" fill="#3C455B" transform="translate(0,0)"/>
<path d="" fill="#37425A" transform="translate(0,0)"/>
<path d="" fill="#3B435A" transform="translate(0,0)"/>
<path d="" fill="#374057" transform="translate(0,0)"/>
<path d="" fill="#3C4359" transform="translate(0,0)"/>
<path d="" fill="#3F455A" transform="translate(0,0)"/>
<path d="" fill="#3E435A" transform="translate(0,0)"/>
<path d="" fill="#354257" transform="translate(0,0)"/>
<path d="" fill="#364257" transform="translate(0,0)"/>
<path d="" fill="#45455F" transform="translate(0,0)"/>
<path d="" fill="#354159" transform="translate(0,0)"/>
<path d="" fill="#364157" transform="translate(0,0)"/>
<path d="" fill="#354258" transform="translate(0,0)"/>
<path d="" fill="#554768" transform="translate(0,0)"/>
<path d="" fill="#5C486F" transform="translate(0,0)"/>
<path d="" fill="#344156" transform="translate(0,0)"/>
<path d="" fill="#664B74" transform="translate(0,0)"/>
<path d="" fill="#354256" transform="translate(0,0)"/>
<path d="" fill="#364158" transform="translate(0,0)"/>
<path d="" fill="#714B7B" transform="translate(0,0)"/>
<path d="" fill="#384356" transform="translate(0,0)"/>
<path d="" fill="#364259" transform="translate(0,0)"/>
<path d="" fill="#76497C" transform="translate(0,0)"/>
<path d="" fill="#7B4B81" transform="translate(0,0)"/>
<path d="" fill="#7F4A87" transform="translate(0,0)"/>
<path d="" fill="#834985" transform="translate(0,0)"/>
<path d="" fill="#874C88" transform="translate(0,0)"/>
<path d="" fill="#854B8A" transform="translate(0,0)"/>
<path d="" fill="#874C8B" transform="translate(0,0)"/>
<path d="" fill="#854E8B" transform="translate(0,0)"/>
<path d="" fill="#884F8B" transform="translate(0,0)"/>
<path d="" fill="#884A8B" transform="translate(0,0)"/>
<path d="" fill="#874D8B" transform="translate(0,0)"/>
<path d="" fill="#844C89" transform="translate(0,0)"/>
<path d="" fill="#86498B" transform="translate(0,0)"/>
<path d="" fill="#894C8E" transform="translate(0,0)"/>
<path d="" fill="#874E8C" transform="translate(0,0)"/>
<path d="" fill="#894B8C" transform="translate(0,0)"/>
<path d="" fill="#8A4C8F" transform="translate(0,0)"/>
<path d="" fill="#8A4A8E" transform="translate(0,0)"/>
<path d="" fill="#8A4E8C" transform="translate(0,0)"/>
<path d="" fill="#8C4D8D" transform="translate(0,0)"/>
<path d="" fill="#8A4D8C" transform="translate(0,0)"/>
<path d="" fill="#894C8F" transform="translate(0,0)"/>
<path d="" fill="#874B8B" transform="translate(0,0)"/>
<path d="" fill="#8C4E8D" transform="translate(0,0)"/>
<path d="" fill="#8C4E8E" transform="translate(0,0)"/>
<path d="" fill="#8D4E90" transform="translate(0,0)"/>
<path d="" fill="#8D508F" transform="translate(0,0)"/>
<path d="" fill="#8B4A8B" transform="translate(0,0)"/>
<path d="" fill="#8F4E8E" transform="translate(0,0)"/>
<path d="" fill="#8D4F91" transform="translate(0,0)"/>
<path d="" fill="#8A4C8D" transform="translate(0,0)"/>
<path d="" fill="#8C4D8F" transform="translate(0,0)"/>
<path d="" fill="#8B4C8F" transform="translate(0,0)"/>
<path d="" fill="#8A4C8C" transform="translate(0,0)"/>
<path d="" fill="#8A4D8B" transform="translate(0,0)"/>
<path d="" fill="#A6765A" transform="translate(0,0)"/>
<path d="" fill="#A87659" transform="translate(0,0)"/>
<path d="" fill="#A47559" transform="translate(0,0)"/>
<path d="" fill="#8D4E92" transform="translate(0,0)"/>
<path d="" fill="#AA785C" transform="translate(0,0)"/>
<path d="" fill="#A7765C" transform="translate(0,0)"/>
<path d="" fill="#B28264" transform="translate(0,0)"/>
<path d="" fill="#AB7C60" transform="translate(0,0)"/>
<path d="" fill="#A4775C" transform="translate(0,0)"/>
<path d="" fill="#A87960" transform="translate(0,0)"/>
<path d="" fill="#AC7B65" transform="translate(0,0)"/>
<path d="" fill="#B68568" transform="translate(0,0)"/>
<path d="" fill="#B8876A" transform="translate(0,0)"/>
<path d="" fill="#B88869" transform="translate(0,0)"/>
<path d="" fill="#B38165" transform="translate(0,0)"/>
<path d="" fill="#8A4B8B" transform="translate(0,0)"/>
<path d="" fill="#BB8A6E" transform="translate(0,0)"/>
<path d="" fill="#B28265" transform="translate(0,0)"/>
<path d="" fill="#BA8C71" transform="translate(0,0)"/>
<path d="" fill="#8C4E91" transform="translate(0,0)"/>
<path d="" fill="#8D4E92" transform="translate(0,0)"/>
<path d="" fill="#C99979" transform="translate(0,0)"/>
<path d="" fill="#CB9C7D" transform="translate(0,0)"/>
<path d="" fill="#E3B28B" transform="translate(0,0)"/>
<path d="" fill="#CA9C7B" transform="translate(0,0)"/>
<path d="" fill="#E2B186" transform="translate(0,0)"/>
<path d="" fill="#D9A47F" transform="translate(0,0)"/>
<path d="" fill="#D6A47D" transform="translate(0,0)"/>
<path d="" fill="#8E4F92" transform="translate(0,0)"/>
<path d="" fill="#8B4E8D" transform="translate(0,0)"/>
<path d="" fill="#894E8C" transform="translate(0,0)"/>
<path d="" fill="#8C4F90" transform="translate(0,0)"/>
<path d="" fill="#8C4F90" transform="translate(0,0)"/>
<path d="" fill="#8A4E90" transform="translate(0,0)"/>
<path d="" fill="#8A4A90" transform="translate(0,0)"/>
<path d="" fill="#8B4E8D" transform="translate(0,0)"/>
<path d="" fill="#8B4D8F" transform="translate(0,0)"/>
<path d="" fill="#8B4F8F" transform="translate(0,0)"/>
<path d="" fill="#8B4D8D" transform="translate(0,0)"/>
<path d="" fill="#874A8B" transform="translate(0,0)"/>
<path d="" fill="#8A4B8D" transform="translate(0,0)"/>
<path d="" fill="#8A4D8F" transform="translate(0,0)"/>
<path d="" fill="#884C8B" transform="translate(0,0)"/>
<path d="" fill="#8A4C8E" transform="translate(0,0)"/>
<path d="" fill="#854A89" transform="translate(0,0)"/>
<path d="" fill="#884C8A" transform="translate(0,0)"/>
<path d="" fill="#8B4D8D" transform="translate(0,0)"/>
<path d="" fill="#894C8D" transform="translate(0,0)"/>
<path d="" fill="#88498B" transform="translate(0,0)"/>
<path d="" fill="#8C4C8E" transform="translate(0,0)"/>
<path d="" fill="#874A88" transform="translate(0,0)"/>
<path d="" fill="#8A4B8C" transform="translate(0,0)"/>
<path d="" fill="#8B4D8C" transform="translate(0,0)"/>
<path d="" fill="#8B4C8C" transform="translate(0,0)"/>
<path d="" fill="#894D8B" transform="translate(0,0)"/>
<path d="" fill="#8B4C8C" transform="translate(0,0)"/>
<path d="" fill="#85488A" transform="translate(0,0)"/>
<path d="" fill="#874C8A" transform="translate(0,0)"/>
<path d="" fill="#88478A" transform="translate(0,0)"/>
<path d="" fill="#8A4C8B" transform="translate(0,0)"/>
<path d="" fill="#854689" transform="translate(0,0)"/>
<path d="" fill="#894A8C" transform="translate(0,0)"/>
<path d="" fill="#894C8E" transform="translate(0,0)"/>
<path d="" fill="#894F90" transform="translate(0,0)"/>
<path d="" fill="#844989" transform="translate(0,0)"/>
<path d="" fill="#8A4D90" transform="translate(0,0)"/>
<path d="" fill="#874A8A" transform="translate(0,0)"/>
<path d="" fill="#8A4D8F" transform="translate(0,0)"/>
<path d="" fill="#8A4B8B" transform="translate(0,0)"/>
<path d="" fill="#884B8A" transform="translate(0,0)"/>
<path d="" fill="#894C88" transform="translate(0,0)"/>
<path d="" fill="#874B88" transform="translate(0,0)"/>
<path d="" fill="#894D89" transform="translate(0,0)"/>
<path d="" fill="#874B8A" transform="translate(0,0)"/>
<path d="" fill="#894B8B" transform="translate(0,0)"/>
<path d="" fill="#894C8C" transform="translate(0,0)"/>
<path d="" fill="#884888" transform="translate(0,0)"/>
<path d="" fill="#884C8C" transform="translate(0,0)"/>
<path d="" fill="#874A87" transform="translate(0,0)"/>
<path d="" fill="#854988" transform="translate(0,0)"/>
<path d="" fill="#894B88" transform="translate(0,0)"/>
<path d="" fill="#874A87" transform="translate(0,0)"/>
<path d="" fill="#8A4B89" transform="translate(0,0)"/>
<path d="" fill="#8A4B87" transform="translate(0,0)"/>
<path d="" fill="#894C89" transform="translate(0,0)"/>
<path d="" fill="#884C88" transform="translate(0,0)"/>
<path d="" fill="#8A4C89" transform="translate(0,0)"/>
<path d="" fill="#864988" transform="translate(0,0)"/>
<path d="" fill="#894A89" transform="translate(0,0)"/>
<path d="" fill="#874A87" transform="translate(0,0)"/>
<path d="" fill="#874B8A" transform="translate(0,0)"/>
<path d="" fill="#894C87" transform="translate(0,0)"/>
<path d="" fill="#874B87" transform="translate(0,0)"/>
<path d="" fill="#884D87" transform="translate(0,0)"/>
<path d="" fill="#854985" transform="translate(0,0)"/>
<path d="" fill="#834881" transform="translate(0,0)"/>
<path d="" fill="#80477B" transform="translate(0,0)"/>
<path d="" fill="#844A81" transform="translate(0,0)"/>
<path d="" fill="#824A7E" transform="translate(0,0)"/>
<path d="" fill="#834880" transform="translate(0,0)"/>
<path d="" fill="#724362" transform="translate(0,0)"/>
<path d="" fill="#643E4C" transform="translate(0,0)"/>
<path d="" fill="#5C3D3F" transform="translate(0,0)"/>
<path d="" fill="#5F4040" transform="translate(0,0)"/>
<path d="" fill="#5F3F42" transform="translate(0,0)"/>
<path d="" fill="#614142" transform="translate(0,0)"/>
<path d="" fill="#5A3D3E" transform="translate(0,0)"/>
<path d="" fill="#5E4244" transform="translate(0,0)"/>
<path d="" fill="#614441" transform="translate(0,0)"/>
<path d="" fill="#5D3C3C" transform="translate(0,0)"/>
<path d="" fill="#5A3D3A" transform="translate(0,0)"/>
<path d="" fill="#5B3D3B" transform="translate(0,0)"/>
<path d="" fill="#5B3E39" transform="translate(0,0)"/>
<path d="" fill="#5B3D39" transform="translate(0,0)"/>
<path d="" fill="#583C38" transform="translate(0,0)"/>
<path d="" fill="#583D39" transform="translate(0,0)"/>
<path d="" fill="#593D36" transform="translate(0,0)"/>
<path d="" fill="#563D36" transform="translate(0,0)"/>
<path d="" fill="#583C37" transform="translate(0,0)"/>
<path d="" fill="#5B3E39" transform="translate(0,0)"/>
<path d="" fill="#5B3F3A" transform="translate(0,0)"/>
<path d="" fill="#5A3E38" transform="translate(0,0)"/>
<path d="" fill="#5A3F37" transform="translate(0,0)"/>
<path d="" fill="#583C39" transform="translate(0,0)"/>
<path d="" fill="#5F423B" transform="translate(0,0)"/>
<path d="" fill="#5B4139" transform="translate(0,0)"/>
<path d="" fill="#5C3E38" transform="translate(0,0)"/>
<path d="" fill="#5E4039" transform="translate(0,0)"/>
<path d="" fill="#5C403A" transform="translate(0,0)"/>
<path d="" fill="#5C403A" transform="translate(0,0)"/>
<path d="" fill="#5B403B" transform="translate(0,0)"/>
</svg>
